<?xml version="1.0" encoding="UTF-8"?>
<svg width="100px" height="100px" viewBox="0 0 100 100" version="1.1" xmlns="http://www.w3.org/2000/svg" xmlns:xlink="http://www.w3.org/1999/xlink">
    <title>icons/rooms/bathroom</title>
    <g id="icons/rooms/bathroom" stroke="none" stroke-width="1" fill="none" fill-rule="evenodd">
        <path d="M97.0234641,40.5490875 L35.7977606,40.5490875 C35.5745481,40.4976089 35.3466808,40.4695275 35.1188255,40.4648552 L17.857058,40.5350468 L17.9407597,25.1992906 C18.0477231,20.0375345 21.1679959,15.9848983 25.08356,15.9848983 L25.08356,15.9895826 C29.371145,16.0316927 32.998259,19.1905518 33.6539681,23.4537986 C33.8446332,25.1057378 35.3327643,26.2944057 36.9742988,26.1024841 C38.6204762,25.9106104 39.7970145,24.4130471 39.6063017,22.7564356 C38.6157977,15.4654522 32.4356444,10.0227622 25.1207026,10 C17.9779023,10 12.2160433,16.6264459 12.0255687,25.1296981 L11.9046649,40.5493151 L2.97616443,40.5493151 C1.33463224,40.5493151 0,41.8924067 0,43.544346 L0,48.5516782 C0.00929992604,55.2296387 2.29260082,61.7022599 6.47316043,66.8920494 C10.6490796,72.0771667 16.4711762,75.6665315 22.9635055,77.0517932 L17.1087901,86.2521687 C16.6298178,86.9213664 16.4438073,87.7543564 16.5972585,88.5639731 C16.7507216,89.3688937 17.2250392,90.0801776 17.9133195,90.52476 C18.6015997,90.9693423 19.4385454,91.1097254 20.2291344,90.9131795 C21.0243304,90.7166336 21.7032893,90.2018597 22.1078099,89.4905398 L29.6412024,77.6882013 L70.3587357,77.6882013 L77.8921282,89.4905398 C78.4408619,90.346927 79.3802116,90.8663372 80.3940131,90.8663372 C81.4821711,90.8663372 82.4819726,90.2673311 82.998159,89.3032905 C83.5189882,88.3439462 83.4817861,87.1740632 82.8912075,86.2520728 L77.0318493,77.0516973 L77.0364921,77.0516973 C83.5282262,75.6665555 89.3506799,72.0771906 93.5268372,66.8919536 C97.7073992,61.702164 99.9907144,55.2300221 100,48.5515824 L100,43.5442501 C100,42.7486981 99.688431,41.9858757 99.1303998,41.4243673 C98.5723685,40.8628589 97.8143388,40.5492552 97.0238689,40.5492552 L97.0234641,40.5490875 Z" id="Fill-1" fill="#FF877A"></path>
    </g>
</svg>