<?xml version="1.0" encoding="UTF-8"?>
<svg width="100px" height="100px" viewBox="0 0 100 100" version="1.1" xmlns="http://www.w3.org/2000/svg" xmlns:xlink="http://www.w3.org/1999/xlink">
    <title>icons/rooms/bedroom</title>
    <g id="icons/rooms/bedroom" stroke="none" stroke-width="1" fill="none" fill-rule="evenodd">
        <g id="Group-20" transform="translate(0.000000, 17.000000)" fill="#FF877A">
            <path d="M18.0939421,22.6233716 C18.0939421,17.9961029 21.8829497,14.2070953 26.5102185,14.2070953 L37.8732436,14.2070953 C42.5005123,14.2070953 46.2895199,17.9961029 46.2895199,22.6233716 L46.2895199,26.7246336 L53.6537617,26.7246336 L53.6537617,22.7260502 C53.6537617,18.0987815 57.4427693,14.3097739 62.0700381,14.3097739 L73.4330632,14.3097739 C78.0603319,14.3097739 81.8493395,18.0987815 81.8493395,22.7260502 L81.8493395,26.7246336 L89.9491639,26.7246336 L89.9491639,4.52459016 C89.9491639,2.00139052 87.9519815,-2.13204422e-13 85.4245737,-2.13204422e-13 C82.901374,-2.13204422e-13 80.8999835,1.99718238 80.8999835,4.52459016 L80.8999835,5.78618999 L19.0435085,5.79030344 L19.0435085,4.52870362 C19.0435085,2.00550397 17.0463261,0.00411345506 14.5189183,0.00411345506 C11.9916157,0.00411345506 9.99432816,2.10818254 9.99432816,4.52460068 L9.99432816,26.7246336 L18.0941525,26.7246336 L18.0939421,22.6233716 Z" id="Fill-1"></path>
            <path d="M26.5102185,18.6245883 C24.2992627,18.6245883 22.408967,20.4122054 22.408967,22.7258398 L22.408967,26.7244127 L41.871606,26.7244127 L41.871606,22.7258398 C41.871606,20.514884 40.0839889,18.6245883 37.7703546,18.6245883 L26.5102185,18.6245883 Z" id="Fill-2"></path>
            <path d="M62.0700381,18.6245883 C59.8590823,18.6245883 57.9687866,20.4122054 57.9687866,22.7258398 L57.9687866,26.7244127 L77.4314256,26.7244127 L77.4314256,22.7258398 C77.4314256,20.514884 75.6438085,18.6245883 73.3301742,18.6245883 L62.0700381,18.6245883 Z" id="Fill-3"></path>
            <path d="M91.2103429,30.9323405 L8.73292822,30.9323405 C3.89189133,30.9323405 0.000205146736,34.8240266 0.000205146736,39.6650688 L0.000205146736,46.5032933 L99.9434815,46.5032933 L99.9434815,39.6650688 C99.9434815,34.8240266 96.0517953,30.9323405 91.2107532,30.9323405 L91.2103429,30.9323405 Z" id="Fill-4"></path>
            <path d="M0,64.1787361 C0,65.2307706 0.842448222,66.0732399 1.89450381,66.0732399 L7.57380708,66.0732399 C8.30941068,66.0732399 8.94229362,65.6540673 9.25874561,65.0212054 L12.0983972,58.9185634 L87.8448844,58.9185634 L90.684536,65.0212054 C91.000967,65.6540673 91.6297259,66.0732399 92.3694745,66.0732399 L98.0487778,66.0732399 C99.1008124,66.0732399 99.9432816,65.2307917 99.9432816,64.1787361 L99.9432816,50.7116419 L0,50.7116419 L0,64.1787361 Z" id="Fill-5"></path>
        </g>
    </g>
</svg>