<?xml version="1.0" encoding="UTF-8"?>
<svg width="100px" height="100px" viewBox="0 0 100 100" version="1.1" xmlns="http://www.w3.org/2000/svg" xmlns:xlink="http://www.w3.org/1999/xlink">
    <title>icons/rooms/conservatory</title>
    <g id="icons/rooms/conservatory" stroke="none" stroke-width="1" fill="none" fill-rule="evenodd">
        <polygon fill="#FF877A" points="29.7971 39.785 29.7971 86.078 49.2581 86.078 49.2581 39.785"></polygon>
        <path d="M26.8121,41.285 L26.8121,65.375 L5.6641,65.375 L5.6641,41.285 L26.8121,41.285 Z" stroke="#FF877A" stroke-width="3"></path>
        <path d="M44.7851,60.054963 C45.17182,60.05891 45.49213,60.36359 45.51557,60.75422 L45.51557,65.10972 C45.49994,65.50816 45.17182,65.82456 44.77338,65.82456 C44.37494,65.82456 44.04682,65.50815 44.0351,65.10972 L44.0351,60.75422 C44.05854,60.35578 44.38666,60.0511 44.7851,60.054963 Z" fill="#FFFFFF"></path>
        <polygon id="Fill-2" fill="#FF877A" points="71.688 24.547 71.688 38.301 95.836 38.301 95.836 36.801"></polygon>
        <polygon id="Fill-3" fill="#FF877A" points="28.316 24.547 4.167999 36.801 4.167999 38.301 28.316 38.301"></polygon>
        <polygon id="Fill-4" fill="#FF877A" points="29.801 23.797 49.262 13.922 49.262 38.305 29.801 38.30109"></polygon>
        <polygon id="Fill-5" fill="#FF877A" points="50.738 13.922 50.738 38.305 70.199 38.305 70.199 23.797"></polygon>
        <path d="M50.738,39.785 L50.738,86.078 L70.199,86.078 L70.199,39.785 L50.738,39.785 Z M55.2146,60.0549628 C55.60913,60.05109 55.94116,60.35578 55.9646,60.75422 L55.9646,65.10972 C55.94897,65.50816 55.62085,65.82456 55.22241,65.82456 C54.82397,65.82456 54.49585,65.50815 54.48413,65.10972 L54.48413,60.75422 C54.50366,60.3636 54.82397,60.05891 55.2146,60.0549628 Z" id="Fill-6" fill="#FF877A"></path>
        <polygon id="Fill-7" fill="#FF877A" points="4.168 68.359 4.168 86.082 28.316 86.082 28.316 68.359"></polygon>
        <polygon id="Fill-8" fill="#FF877A" points="71.688 68.359 95.836 68.359 95.836 86.082 71.688 86.082"></polygon>
        <path d="M73.187,41.285 L94.3321661,41.285 L94.3348339,65.375 L73.187,65.375 L73.187,41.285 Z" id="Fill-9" stroke="#FF877A" stroke-width="3"></path>
    </g>
</svg>