<?xml version="1.0" encoding="UTF-8"?>
<svg width="361px" height="361px" viewBox="0 0 361 361" version="1.1" xmlns="http://www.w3.org/2000/svg" xmlns:xlink="http://www.w3.org/1999/xlink">
    <title>Group 11</title>
    <defs>
        <rect id="path-1" x="0" y="0" width="361" height="361"></rect>
        <polygon id="path-3" points="0.0487221167 0.633009686 154.513225 0.633009686 154.513225 155 0.0487221167 155"></polygon>
        <polygon id="path-5" points="0.89659243 0.488368074 155.434059 0.488368074 155.434059 154.949252 0.89659243 154.949252"></polygon>
    </defs>
    <g id="Page-1" stroke="none" stroke-width="1" fill="none" fill-rule="evenodd">
        <g id="Group-11" transform="translate(180.500000, 180.500000) scale(-1, 1) translate(-180.500000, -180.500000) ">
            <mask id="mask-2" fill="white">
                <use xlink:href="#path-1"></use>
            </mask>
            <g id="Mask"></g>
            <g mask="url(#mask-2)">
                <g transform="translate(-31.000000, 54.000000)">
                    <g id="Group-3" stroke-width="1" fill="none" transform="translate(1.000000, 195.000000)">
                        <mask id="mask-4" fill="white">
                            <use xlink:href="#path-3"></use>
                        </mask>
                        <g id="Clip-2"></g>
                        <path d="M16.4829313,80.805725 C31.1035563,69.5115375 45.4984938,57.9131625 60.4134938,47.011475 C74.9948687,36.3452875 89.9393062,26.130475 105.050556,16.2100375 C113.675744,10.5580375 122.330369,4.7490375 132.368556,1.61885 C138.874244,-0.402525 144.653806,0.5885375 149.667994,5.484975 C154.613494,10.3029125 155.643806,16.2100375 153.347681,22.2152875 C150.757181,29.0055375 147.744744,35.8154125 143.790306,41.8795375 C132.613869,58.9729125 121.182306,75.9092875 109.250306,92.4826 C97.4753062,108.840038 85.0036188,124.697038 71.2170562,139.445225 C65.7220562,145.322913 59.3733688,149.98385 51.7490563,152.672475 C38.5414313,157.333413 26.4229938,154.919538 15.7077438,146.156975 C3.04961875,135.785163 -3.96631875,118.986163 2.49030625,101.421788 C5.44386875,93.404975 10.5954313,86.9876 17.0422438,81.512225 C16.8558063,81.276725 16.6693688,81.041225 16.4829313,80.805725" id="Fill-1" fill="#FFFFFF" mask="url(#mask-4)"></path>
                    </g>
                    <path d="M332.517196,74.4983346 C317.84604,85.8391524 303.391504,97.4854135 288.434802,108.432111 C273.803031,119.142336 258.806943,129.399322 243.643466,139.360718 C234.988469,145.036054 226.303932,150.869037 216.231051,154.012148 C209.702878,156.041869 203.893494,155.036862 198.861977,150.130061 C193.899384,145.302085 192.865511,139.360718 195.169572,133.330674 C197.778871,126.512389 200.791874,119.674398 204.769825,113.59509 C215.98489,96.4212882 227.455962,79.414988 239.429201,62.7732493 C251.244898,46.3482769 263.749843,30.4258081 277.593901,15.6167298 C283.098046,9.71477515 289.468675,5.03459405 297.119339,2.33486853 C310.382458,-2.33545956 322.542779,0.0785285884 333.295063,8.87726906 C345.996936,19.2919036 353.027276,36.1602616 346.548335,53.7971546 C343.594411,61.8470661 338.425044,68.2909365 331.95595,73.7889177 C332.143032,74.02539 332.330114,74.2618623 332.517196,74.4983346" id="Fill-4" fill="#FFFFFF"></path>
                    <path d="M74.5006088,17.4911438 C85.8411062,32.1624204 97.4870384,46.6072277 108.433426,61.5640527 C119.143349,76.2057899 129.400045,91.2020008 139.36116,106.365602 C145.036335,115.010824 150.869154,123.705279 154.012176,133.778243 C156.041839,140.306468 155.036861,146.106054 150.130199,151.147459 C145.292506,156.100245 139.36116,157.134127 133.331286,154.830048 C126.513194,152.220727 119.675396,149.207699 113.586407,145.239562 C96.4229431,134.024405 79.4171233,122.553239 62.7660021,110.579902 C46.3513464,98.7641085 30.4293275,86.2492141 15.6206675,72.4148895 C9.71887959,66.9008527 5.03883071,60.5301708 2.33918146,52.8794446 C-2.34086742,39.6162167 0.0829052635,27.4656426 8.88139716,16.7132707 C19.2858848,4.01129293 36.1636189,-3.02895056 53.8000137,3.45004275 C61.8496978,6.40399107 68.3032388,11.5832471 73.7813592,18.0523939 C74.0276776,17.8653106 74.2641432,17.6782272 74.5006088,17.4911438" id="Fill-6" fill="#FFFFFF"></path>
                    <g id="Group-10" stroke-width="1" fill="none" transform="translate(195.000000, 194.000000)">
                        <mask id="mask-6" fill="white">
                            <use xlink:href="#path-5"></use>
                        </mask>
                        <g id="Clip-9"></g>
                        <path d="M81.1573706,138.519031 C69.8504882,123.898406 58.2390765,109.503469 47.3251353,94.5982813 C36.6469588,80.0070938 26.4206647,65.0626563 16.4890765,49.9514063 C10.8307235,41.3360313 5.01519412,32.6715938 1.88148824,22.6334063 C-0.142158824,16.1277188 0.859841176,10.3481563 5.75195882,5.32415625 C10.5654882,0.38846875 16.4890765,-0.64184375 22.5010765,1.65428125 C29.2989588,4.24478125 36.1164882,7.25721875 42.1776059,11.2116563 C59.3000176,22.3880938 76.2652529,33.8196563 92.8473706,45.7516563 C109.223194,57.5266563 125.098018,69.9983438 139.862782,83.7849063 C145.747076,89.2700938 150.413253,95.6285938 153.1049,103.252906 C157.771076,116.460531 155.354488,128.578969 146.582076,139.294219 C136.198606,151.952344 119.380724,158.968281 101.796606,152.501844 C93.7806059,149.558094 87.3363706,144.406531 81.8646647,137.959719 C81.6289,138.146156 81.3931353,138.332594 81.1573706,138.519031" id="Fill-8" fill="#FFFFFF" mask="url(#mask-6)"></path>
                    </g>
                </g>
            </g>
        </g>
    </g>
</svg>