<?xml version="1.0" encoding="UTF-8"?>
<svg width="100px" height="100px" viewBox="0 0 100 100" version="1.1" xmlns="http://www.w3.org/2000/svg" xmlns:xlink="http://www.w3.org/1999/xlink">
    <title>icons/rooms/dining</title>
    <g id="icons/rooms/dining" stroke="none" stroke-width="1" fill="none" fill-rule="evenodd">
        <g id="Group-4" transform="translate(0.000000, 17.000000)" fill="#FF877A">
            <rect id="Rectangle" x="27.5862069" y="18.3908046" width="45.9770115" height="9.1954023"></rect>
            <rect id="Rectangle-Copy-6" x="9.1954023" y="36.7816092" width="22.9885057" height="9.1954023"></rect>
            <rect id="Rectangle-Copy-7" x="64.3678161" y="36.7816092" width="27.5862069" height="9.1954023"></rect>
            <path d="M77.7578414,30.1420222 L77.7578414,13.2904734 L21.9888954,13.2904734 L21.9888954,30.1420222 L46.9485681,30.1420222 L46.9485681,62.9481785 L42.8258328,62.9481785 L42.8258328,68.7977791 L56.920904,68.7977791 L56.920904,62.9481785 L52.7981687,62.9481785 L52.7981687,30.1420222 L77.7578414,30.1420222 Z M27.838496,24.2924216 L27.838496,19.1398792 L71.9084356,19.1398792 L71.9084356,24.2924216 L27.838496,24.2924216 Z" id="Shape" fill-rule="nonzero"></path>
            <path d="M11.2815118,34.2176115 L11.2815118,7.31307228 L4.13617767,0.167738165 L0,4.30411066 L5.43210598,9.73621664 L5.43210598,68.7977791 L11.2817066,68.7977791 L11.2817066,51.0691603 L31.8184298,51.0691603 L31.8184298,68.7977791 L37.6680304,68.7977791 L37.6680304,34.2176115 L11.2815118,34.2176115 Z M31.818235,45.2195597 L11.2815118,45.2195597 L11.2815118,40.0670173 L31.818235,40.0670173 L31.818235,45.2195597 Z" id="Shape" fill-rule="nonzero"></path>
            <path d="M95.6107539,0.167738165 L88.4654198,7.31307228 L88.4654198,34.2176115 L62.0789012,34.2176115 L62.0789012,68.7977791 L67.9285019,68.7977791 L67.9285019,51.0691603 L88.465225,51.0691603 L88.465225,68.7977791 L94.3148256,68.7977791 L94.3148256,9.73621664 L99.7467368,4.30411066 L95.6107539,0.167738165 Z M88.465225,45.2197545 L67.9285019,45.2197545 L67.9285019,40.0672122 L88.465225,40.0672122 L88.465225,45.2197545 L88.465225,45.2197545 Z" id="Shape" fill-rule="nonzero"></path>
        </g>
    </g>
</svg>