<?xml version="1.0" encoding="UTF-8"?>
<svg width="100px" height="100px" viewBox="0 0 100 100" version="1.1" xmlns="http://www.w3.org/2000/svg" xmlns:xlink="http://www.w3.org/1999/xlink">
    <title>icons/rooms/hallway</title>
    <g id="icons/rooms/hallway" stroke="none" stroke-width="1" fill="none" fill-rule="evenodd">
        <path d="M10,0 L10,100 L39.4719706,91.6637736 L89.9955126,91.6637736 L89.9955126,87.4978166 L90,12.5026411 L90,8.3366841 L39.4718673,8.33224329 L10,0 Z M18.3333333,40 C21.0968305,40 23.3333333,41.9919028 23.3333333,44.4428698 L23.3333333,48.8857396 C23.3333333,51.3365855 21.0969669,53.3333333 18.3333333,53.3333333 C15.5751618,53.3333333 13.3333333,51.3414305 13.3333333,48.8857396 L13.3333333,44.4428698 C13.3280129,41.9873 15.5750255,40 18.3333333,40 Z M43.3333333,16.6666667 L80,16.6666667 L80,83.3333333 L43.3333333,83.328904 L43.3333333,16.6666667 Z" id="Fill-1" fill="#FF877A"></path>
    </g>
</svg>