<?xml version="1.0" encoding="UTF-8"?>
<svg width="98px" height="107px" viewBox="0 0 98 107" version="1.1" xmlns="http://www.w3.org/2000/svg" xmlns:xlink="http://www.w3.org/1999/xlink">
    <title>Group 7</title>
    <defs>
        <polygon id="path-1" points="0 0.0756856161 43.7060116 0.0756856161 43.7060116 107 0 107"></polygon>
        <polygon id="path-3" points="0.0712719491 0.0756856161 42.9656754 0.0756856161 42.9656754 107 0.0712719491 107"></polygon>
    </defs>
    <g id="Homepage" stroke="none" stroke-width="1" fill="none" fill-rule="evenodd">
        <g id="Home---Small-(360px)" transform="translate(-25.000000, -423.000000)">
            <g id="Group-37" transform="translate(0.000000, 116.000000)">
                <g id="Group" transform="translate(0.000000, 259.000000)">
                    <g id="Group-7" transform="translate(25.000000, 48.000000)">
                        <g id="Group-3">
                            <mask id="mask-2" fill="white">
                                <use xlink:href="#path-1"></use>
                            </mask>
                            <g id="Clip-2"></g>
                            <path d="M3.5626381,56.1406853 C5.08692381,65.9606723 6.92549524,75.7439707 8.94425714,85.4780015 C10.0945429,91.0284745 11.205019,96.6565179 13.8869238,101.773016 C15.6301619,105.093866 18.2638762,106.950313 22.1128286,107.000638 C25.9094,107.051993 28.6038762,105.153616 30.0464476,101.922916 C31.6754952,98.2739645 33.1547333,94.4583419 33.9729238,90.5620041 C36.2745429,79.5669311 38.413781,68.5309764 40.2167333,57.449947 C41.9955905,46.5114793 43.3124476,35.4954413 43.6854,24.3986882 C43.8352095,19.9792748 43.1825429,15.694037 41.2622571,11.6886815 C37.9360667,4.73460441 32.2914952,0.95986344 24.7224476,0.201980151 C15.7715905,-0.690078879 6.51692381,3.11715778 2.20178095,12.4633368 C0.232257143,16.7202718 -0.262219048,21.2245934 0.118066667,25.8578494 C-0.0474571429,25.8788144 2.00273333,46.1016144 3.5626381,56.1406853" id="Fill-1" fill="#24486D" mask="url(#mask-2)"></path>
                        </g>
                        <g id="Group-6" transform="translate(55.000000, 0.000000)">
                            <mask id="mask-4" fill="white">
                                <use xlink:href="#path-3"></use>
                            </mask>
                            <g id="Clip-5"></g>
                            <path d="M3.56760141,56.1406853 C5.06255915,65.9606723 6.86905211,75.7439707 8.84930563,85.4780015 C9.97823521,91.0284745 11.0680944,96.6565179 13.700207,101.773016 C15.4110803,105.093866 17.994869,106.950313 21.7733901,107.000638 C25.4994746,107.051993 28.1439254,105.153616 29.5597141,101.922916 C31.1585169,98.2739645 32.6102915,94.4583419 33.4132915,90.5620041 C35.6721789,79.5669311 37.7717,68.5309764 39.5411789,57.449947 C41.288038,46.5114793 42.5794183,35.4954413 42.9454465,24.3986882 C43.0924746,19.9792748 42.4519254,15.694037 40.5672915,11.6886815 C37.3028549,4.73460441 31.7630803,0.95986344 24.3345592,0.201980151 C15.5498831,-0.690078879 6.46703803,3.11715778 2.23200986,12.4633368 C0.299052113,16.7202718 -0.186243662,21.2245934 0.188009859,25.8578494 C0.0245309859,25.8788144 2.03665775,46.1016144 3.56760141,56.1406853" id="Fill-4" fill="#24486D" mask="url(#mask-4)"></path>
                        </g>
                    </g>
                </g>
            </g>
        </g>
    </g>
</svg>