<?xml version="1.0" encoding="UTF-8"?>
<svg width="100px" height="100px" viewBox="0 0 100 100" version="1.1" xmlns="http://www.w3.org/2000/svg" xmlns:xlink="http://www.w3.org/1999/xlink">
    <title>icon-clock</title>
    <g id="Navigation" stroke="none" stroke-width="1" fill="none" fill-rule="evenodd">
        <g id="icon-clock" fill="#1B2C3D" fill-rule="nonzero">
            <path d="M50,100 C36.738,100 24.02,94.7305 14.645,85.355 C5.27,75.9795 3.55271368e-15,63.261 3.55271368e-15,50 C3.55271368e-15,36.739 5.2695,24.02 14.645,14.645 C24.0205,5.27 36.739,1.0658141e-14 50,1.0658141e-14 C63.261,1.0658141e-14 75.98,5.2695 85.355,14.645 C94.73,24.0205 100,36.739 100,50 C100,63.261 94.7305,75.98 85.355,85.355 C75.9795,94.73 63.261,100 50,100 Z M50,8.332 C38.949,8.332 28.352,12.7226 20.539,20.539 C12.7226,28.3515 8.332,38.949 8.332,50 C8.332,61.051 12.7226,71.648 20.539,79.461 C28.3515,87.2774 38.949,91.668 50,91.668 C61.051,91.668 71.648,87.2774 79.461,79.461 C87.2774,71.6485 91.668,61.051 91.668,50 C91.668,38.949 87.2774,28.352 79.461,20.539 C71.6485,12.7226 61.051,8.332 50,8.332 L50,8.332 Z M59.293,65.414 L47.086,53.168 L47.082093,53.171906 C46.222713,52.324246 45.765693,51.152406 45.832093,49.945306 L45.832093,29.168306 C45.832093,26.867506 47.699293,25.000306 50.000093,25.000306 C52.300893,25.000306 54.168093,26.867506 54.168093,29.168306 L54.168093,48.047306 L65.418093,59.297306 C67.105593,60.988706 67.105593,63.730906 65.414186,65.418406 C63.722786,67.109806 60.980586,67.109806 59.293086,65.418406 L59.293,65.414 Z" id="Shape"></path>
        </g>
    </g>
</svg>