<?xml version="1.0" encoding="UTF-8"?>
<svg width="25px" height="25px" viewBox="0 0 25 25" version="1.1" xmlns="http://www.w3.org/2000/svg" xmlns:xlink="http://www.w3.org/1999/xlink">
    <g id="Page-1" stroke="none" stroke-width="1" fill="none" fill-rule="evenodd">
        <path d="M24.5937392,0.406260833 C24.0520581,-0.135420278 23.1745707,-0.135420278 22.6328896,0.406260833 L12.5,10.5391504 L2.3671104,0.406260833 C1.82542929,-0.135420278 0.947941945,-0.135420278 0.406260833,0.406260833 C-0.135420278,0.947941945 -0.135420278,1.82542929 0.406260833,2.3671104 L10.5391504,12.5 L0.406260833,22.6328896 C-0.135420278,23.1745707 -0.135420278,24.0520581 0.406260833,24.5937392 C0.947941945,25.1354203 1.82542929,25.1354203 2.3671104,24.5937392 L12.5,14.4608496 L22.6328896,24.5937392 C23.1745707,25.1354203 24.0520581,25.1354203 24.5937392,24.5937392 C25.1354203,24.0520581 25.1354203,23.1745707 24.5937392,22.6328896 L14.4608496,12.5 L24.5937392,2.3671104 C25.1354203,1.82542929 25.1354203,0.947941945 24.5937392,0.406260833 Z" id="icon-cross" fill="#D34030"></path>
    </g>
</svg>
