<?xml version="1.0" encoding="UTF-8"?>
<svg width="36px" height="36px" viewBox="0 0 36 36" version="1.1" xmlns="http://www.w3.org/2000/svg" xmlns:xlink="http://www.w3.org/1999/xlink">
    <title>Group</title>
    <defs>
        <polygon id="path-1" points="0.106790581 19.9052022 15.8483959 19.9052022 15.8483959 35.63687 0.106790581 35.63687"></polygon>
        <polygon id="path-3" points="19.9055556 19.7885508 35.6369144 19.7885508 35.6369144 35.5297874 19.9055556 35.5297874"></polygon>
    </defs>
    <g id="Symbols" stroke="none" stroke-width="1" fill="none" fill-rule="evenodd">
        <g id="global/footer/mobile" transform="translate(-163.000000, -685.000000)">
            <g id="Group" transform="translate(163.000000, 685.000000)">
                <mask id="mask-2" fill="white">
                    <use xlink:href="#path-1"></use>
                </mask>
                <g id="Clip-2"></g>
                <path d="M1.78161444,28.07567 C3.27161444,26.92467 4.73861444,25.74267 6.25861444,24.63167 C7.74461444,23.54467 9.26761444,22.50367 10.8076144,21.49267 C11.6866144,20.91667 12.5686144,20.32467 13.5916144,20.00567 C14.2546144,19.79967 14.8436144,19.90067 15.3546144,20.39967 C15.8586144,20.89067 15.9636144,21.49267 15.7296144,22.10467 C15.4656144,22.79667 15.1586144,23.49067 14.7556144,24.10867 C13.6166144,25.85067 12.4516144,27.57667 11.2356144,29.26567 C10.0356144,30.93267 8.76461444,32.54867 7.35961444,34.05167 C6.79961444,34.65067 6.15261444,35.12567 5.37561444,35.39967 C4.02961444,35.87467 2.79461444,35.62867 1.70261444,34.73567 C0.412614442,33.67867 -0.302385558,31.96667 0.355614442,30.17667 C0.656614442,29.35967 1.18161444,28.70567 1.83861444,28.14767 C1.81961444,28.12367 1.80061444,28.09967 1.78161444,28.07567" id="Fill-1" fill="#194568"></path>
                <path d="M33.8559144,7.56097001 C32.3659144,8.71197001 30.8979144,9.89397001 29.3789144,11.00497 C27.8929144,12.09197 26.3699144,13.13297 24.8299144,14.14397 C23.9509144,14.71997 23.0689144,15.31197 22.0459144,15.63097 C21.3829144,15.83697 20.7929144,15.73497 20.2819144,15.23697 C19.7779144,14.74697 19.6729144,14.14397 19.9069144,13.53197 C20.1719144,12.83997 20.4779144,12.14597 20.8819144,11.52897 C22.0209144,9.78597001 23.1859144,8.05997001 24.4019144,6.37097001 C25.6019144,4.70397001 26.8719144,3.08797001 28.2779144,1.58497001 C28.8369144,0.985970008 29.4839144,0.510970008 30.2609144,0.236970008 C31.6079144,-0.237029992 32.8429144,0.00797000772 33.9349144,0.900970008 C35.2249144,1.95797001 35.9389144,3.66997001 35.2809144,5.45997001 C34.9809144,6.27697001 34.4559144,6.93097001 33.7989144,7.48897001 C33.8179144,7.51297001 33.8369144,7.53697001 33.8559144,7.56097001" id="Fill-4" fill="#194568"></path>
                <path d="M7.56141444,1.78147001 C8.71241444,3.27147001 9.89441444,4.73847001 11.0054144,6.25747001 C12.0924144,7.74447001 13.1334144,9.26747001 14.1444144,10.80747 C14.7204144,11.68547 15.3124144,12.56847 15.6314144,13.59147 C15.8374144,14.25447 15.7354144,14.84347 15.2374144,15.35547 C14.7464144,15.85847 14.1444144,15.96347 13.5324144,15.72947 C12.8404144,15.46447 12.1464144,15.15847 11.5284144,14.75547 C9.78641444,13.61647 8.06041444,12.45147 6.37041444,11.23547 C4.70441444,10.03547 3.08841444,8.76447001 1.58541444,7.35947001 C0.986414442,6.79947001 0.511414442,6.15247001 0.237414442,5.37547001 C-0.237585558,4.02847001 0.00841444206,2.79447001 0.901414442,1.70247001 C1.95741444,0.412470008 3.67041444,-0.302529992 5.46041444,0.355470008 C6.27741444,0.655470008 6.93241444,1.18147001 7.48841444,1.83847001 C7.51341444,1.81947001 7.53741444,1.80047001 7.56141444,1.78147001" id="Fill-6" fill="#194568"></path>
                <mask id="mask-4" fill="white">
                    <use xlink:href="#path-3"></use>
                </mask>
                <g id="Clip-9"></g>
                <path d="M28.0758144,33.85537 C26.9248144,32.36537 25.7428144,30.89837 24.6318144,29.37937 C23.5448144,27.89237 22.5038144,26.36937 21.4928144,24.82937 C20.9168144,23.95137 20.3248144,23.06837 20.0058144,22.04537 C19.7998144,21.38237 19.9018144,20.79337 20.3998144,20.28137 C20.8898144,19.77837 21.4928144,19.67337 22.1048144,19.90737 C22.7968144,20.17137 23.4908144,20.47837 24.1078144,20.88137 C25.8508144,22.02037 27.5778144,23.18537 29.2658144,24.40137 C30.9328144,25.60137 32.5488144,26.87237 34.0518144,28.27737 C34.6508144,28.83637 35.1258144,29.48437 35.3998144,30.26137 C35.8748144,31.60737 35.6288144,32.84237 34.7358144,33.93437 C33.6788144,35.22437 31.9668144,35.93937 30.1768144,35.28037 C29.3608144,34.98037 28.7048144,34.45537 28.1478144,33.79837 C28.1238144,33.81737 28.0998144,33.83637 28.0758144,33.85537" id="Fill-8" fill="#194568"></path>
            </g>
        </g>
    </g>
</svg>