<svg width="30px" height="30px" viewBox="0 0 30 30" version="1.1" xmlns="http://www.w3.org/2000/svg" xmlns:xlink="http://www.w3.org/1999/xlink">
    <g id="Page-1" stroke="none" stroke-width="1" fill="none" fill-rule="evenodd">
        <g id="icon-tick" fill="#24486D">
            <path d="M29.5631216,3.13348279 C29.307759,2.87678889 28.961964,2.73314231 28.6002003,2.73314231 C28.2384366,2.73314231 27.8926415,2.87678548 27.6372789,3.13348279 L14.9808268,15.788573 L10.4959783,11.3050865 C9.96397283,10.7717531 9.10210698,10.7717531 8.57013558,11.3050865 C8.03680225,11.8370919 8.03680225,12.6989578 8.57013558,13.2309292 L14.0178714,18.6786649 C14.273234,18.9353589 14.619029,19.0790054 14.9807927,19.0790054 C15.3425564,19.0790054 15.6883514,18.9353623 15.9437141,18.6786649 L29.5630535,5.05932549 C29.8197474,4.80396287 29.963394,4.45816784 29.963394,4.09640414 C29.963394,3.73464043 29.8197508,3.38884541 29.5630535,3.13348279 L29.5631216,3.13348279 Z" id="Fill-1"></path>
            <path d="M29.6628833,11.9887773 C29.5125905,11.251937 28.7930501,10.7758049 28.0548819,10.9260943 C27.3180416,11.0763871 26.8432374,11.7959275 26.9935268,12.5340957 C27.7476296,16.2154031 26.7700845,20.0393732 24.3441567,22.908287 C21.916884,25.7771328 18.3084059,27.3757708 14.5525326,27.2426418 C10.7966592,27.1095128 7.30942737,25.2622536 5.09083698,22.2283415 C2.87238277,19.1959275 2.16880769,15.3124409 3.17960102,11.6934419 C4.19175628,8.07444295 6.80643112,5.11904629 10.2766388,3.67607727 C13.746506,2.23167823 17.6862404,2.46044908 20.9661179,4.29320359 C21.6244767,4.66293461 22.457061,4.42753454 22.8254641,3.76916546 C23.1938673,3.11080659 22.9597951,2.27955021 22.301426,1.90981919 C18.4485149,-0.247450134 13.838709,-0.595934982 9.70626088,0.960176696 C5.57245087,2.51496049 2.33547436,5.81479025 0.860500918,9.97754135 C-0.614473205,14.139271 -0.178246102,18.7409053 2.05351999,22.5515965 C4.28528709,26.3633091 8.08518495,28.9955866 12.4369044,29.7456714 C16.7899858,30.4944627 21.2510004,29.2868018 24.6292776,26.4419268 C28.0075207,23.5983449 29.959887,19.4088999 29.9626109,14.9918076 C29.9626109,13.9836701 29.8615282,12.9768263 29.6633566,11.9886411 L29.6628833,11.9887773 Z" id="Fill-2"></path>
        </g>
    </g>
</svg>
