<?xml version="1.0" encoding="UTF-8"?>
<svg width="100px" height="100px" viewBox="0 0 100 100" version="1.1" xmlns="http://www.w3.org/2000/svg" xmlns:xlink="http://www.w3.org/1999/xlink">
    <title>icons/rooms/kitchen</title>
    <g id="icons/rooms/kitchen" stroke="none" stroke-width="1" fill="none" fill-rule="evenodd">
        <path d="M26.6550517,96.4672597 L26.6550517,98.1352495 C26.6550517,98.6309432 26.4543915,99.1030301 26.0972079,99.4531648 C25.7400244,99.8032997 25.2584338,100 24.7527611,100 L20.5027432,100 C19.9970705,100 19.5154799,99.8032997 19.1582963,99.4531648 C18.8011128,99.1030301 18.6004526,98.6309432 18.6004526,98.1352495 L18.6004526,96.4672597 L26.6550517,96.4672597 Z M81.3997036,96.4672597 L81.3997036,98.1352495 C81.3997036,98.6309432 81.1990434,99.1030301 80.8418598,99.4531648 C80.4846763,99.8032996 80.0030857,100 79.497413,100 L75.2473951,100 C74.7417224,100 74.2601318,99.8032997 73.9029482,99.4531648 C73.5457647,99.1030301 73.3451045,98.6309432 73.3451045,98.1352495 L73.3451045,96.4672597 L81.3997036,96.4672597 Z M95.9999897,29.324675 L95.9999897,90.0388197 C95.9999897,92.7297429 93.7766079,94.9091465 91.0356253,94.9091465 L8.96436442,94.9091465 C6.2232791,94.9091465 4,92.7296412 4,90.0388197 L4,29.324675 L95.9999897,29.324675 Z M79.3048486,63.7479887 L20.6910336,63.7479887 L20.6910336,74.9753468 C20.6910336,75.970662 21.0963711,76.9266391 21.8147964,77.6308164 C22.5332217,78.3349937 23.5083515,78.7324027 24.5237243,78.7324027 L75.4762675,78.7324027 C76.4916198,78.7324027 77.466842,78.3350642 78.1851954,77.6308164 C78.9035694,76.926619 79.3048486,75.9706821 79.3048486,74.9753468 L79.3048486,63.7479887 Z M79.3048486,58.2284752 L79.3048486,44.9465952 C79.3048486,43.95128 78.9035283,42.9953029 78.1851954,42.2911256 C77.4668215,41.5869281 76.4916403,41.1895392 75.4762675,41.1895392 L24.5237243,41.1895392 C23.508372,41.1895392 22.5331498,41.5868777 21.8147964,42.2911256 C21.0964224,42.995323 20.6910336,43.9512599 20.6910336,44.9465952 L20.6910336,58.2284752 L79.3048486,58.2284752 Z M96.0000062,25.0328391 L4.00000616,25.0328391 L4.00000616,12.4317713 C4.00000616,9.74085107 6.223388,7.56144643 8.96437058,7.56144643 L91.0356356,7.56144643 C93.7767209,7.56144643 96.0000062,9.74095178 96.0000062,12.4317713 L96.0000062,25.0328391 Z M32.9519452,13.5174451 C34.9545402,13.5174451 36.5798764,15.1107067 36.5798764,17.0737823 C36.5798764,19.0329301 34.9545402,20.6261917 32.9519452,20.6261917 C30.9493502,20.6261917 29.324014,19.0329301 29.324014,17.0737823 C29.324014,15.1107067 30.9493502,13.5174451 32.9519452,13.5174451 Z M67.049074,13.5174451 C69.0476622,13.5174451 70.6729984,15.1107067 70.6729984,17.0737823 C70.6729984,19.0329301 69.0476622,20.6261917 67.049074,20.6261917 C65.046479,20.6261917 63.4211428,19.0329301 63.4211428,17.0737823 C63.4211428,15.1107067 65.046479,13.5174451 67.049074,13.5174451 Z M82.6726439,3.52098733 C82.6726439,1.57755057 81.063335,0 79.0807742,0 L20.9210669,0 C18.9385061,0 17.3291972,1.57755057 17.3291972,3.52098733 L17.3291972,5.51558571 L82.6734658,5.51558571 L82.6734658,3.52098733 L82.6726439,3.52098733 Z M69.2723531,2.13227149 L56.4658956,2.13227149 C56.2933244,2.13227149 56.1327942,2.19915424 56.0123939,2.31324063 C55.8919937,2.43126486 55.8237748,2.59255491 55.8237748,2.75779285 C55.8237748,2.92695857 55.892004,3.08432085 56.0123939,3.20234507 C56.1327942,3.3203693 56.2933244,3.38724198 56.4658956,3.38724198 L69.2723531,3.38724198 C69.4409072,3.38724198 69.6014374,3.3203693 69.7218376,3.20234507 C69.8422379,3.08432085 69.9104568,2.92695857 69.9104568,2.75779285 C69.9104568,2.59256498 69.8422276,2.43126486 69.7218376,2.31324063 C69.6014374,2.19915424 69.4409072,2.13227149 69.2723531,2.13227149 Z M43.5351236,2.13227149 L30.7286661,2.13227149 C30.560112,2.13227149 30.3955646,2.19915424 30.2751644,2.31324063 C30.1547642,2.43126486 30.0905521,2.59255491 30.0905521,2.75779285 C30.0905521,2.92695857 30.1547642,3.08432085 30.2751644,3.20234507 C30.3955646,3.3203693 30.5601017,3.38724198 30.7286661,3.38724198 L43.5351236,3.38724198 C43.7036777,3.38724198 43.868225,3.3203693 43.9886252,3.20234507 C44.1090255,3.08432085 44.1772444,2.92695857 44.1772444,2.75779285 C44.1772444,2.59256498 44.1090152,2.43126486 43.9886252,2.31324063 C43.868225,2.19915424 43.703688,2.13227149 43.5351236,2.13227149 Z" id="Fill-1" fill="#FF877A"></path>
    </g>
</svg>