<?xml version="1.0" encoding="UTF-8"?>
<svg width="100px" height="100px" viewBox="0 0 100 100" version="1.1" xmlns="http://www.w3.org/2000/svg" xmlns:xlink="http://www.w3.org/1999/xlink">
    <title>icons/rooms/livingroom</title>
    <g id="icons/rooms/livingroom" stroke="none" stroke-width="1" fill="none" fill-rule="evenodd">
        <g id="Group-21" transform="translate(1.000000, 25.000000)" fill="#FF877A">
            <path d="M97.7466465,19.5844939 C97.7466465,14.9523767 94.0047732,11.2176254 89.3797779,11.2176254 C84.7476608,11.2176254 81.0129094,14.9594987 81.0129094,19.4107183 L81.0129094,34.0092943 L16.733737,34.0092943 L16.733737,19.4107183 C16.5529107,14.7786011 12.8180881,11.2176254 8.36686851,11.2176254 C3.73475132,11.2176254 3.46606213e-14,14.9594987 3.46606213e-14,19.5844939 C3.46606213e-14,23.5001428 2.67073178,26.8873429 6.41260505,27.7775868 L6.41260505,49.143441 L16.7339151,49.143441 L16.7339151,44.6922214 L80.8314777,44.6922214 L80.8314777,49.143441 L91.3335073,49.143441 L91.3335073,27.7775868 C94.894483,26.8873429 97.7466465,23.5003209 97.7466465,19.5844939 L97.7466465,19.5844939 Z" id="Fill-1"></path>
            <path d="M18.3333273,18.69425 L18.3333273,32.5834796 L48.0656939,32.5834796 L48.0726378,3.38703984 C47.0015676,1.42565443 44.8663353,0.0069617075 42.5502767,0.0069617075 L19.5855444,2.62120948e-13 C16.2054663,2.62120948e-13 13.3538369,2.85162934 13.3538369,6.23170748 L13.3538369,11.2184979 C16.1985224,12.6442769 18.1597297,15.3150443 18.3336834,18.6951224 L18.3333273,18.69425 Z" id="Fill-2"></path>
            <path d="M79.2331338,18.69425 C79.4139601,15.3141719 81.3682948,12.6434401 84.2199242,11.391401 L84.2199242,6.40461066 C84.2199242,3.02453252 81.3682948,0.172903175 77.9882167,0.172903175 L55.0163624,0.179864883 C52.5265282,0.179864883 50.5651428,1.60564394 49.4940013,3.55994302 L49.4940013,32.7563828 L79.2263679,32.7563828 L79.2331338,18.69425 Z" id="Fill-3"></path>
        </g>
    </g>
</svg>