<svg width="112" height="43" viewBox="0 0 112 43" fill="none" xmlns="http://www.w3.org/2000/svg">
<g clip-path="url(#clip0_1_5908)">
<mask id="mask0_1_5908" style="mask-type:luminance" maskUnits="userSpaceOnUse" x="0" y="0" width="19" height="27">
<path d="M0.0126953 0.0217285H18.8019V26.3132H0.0126953V0.0217285Z" fill="white"/>
</mask>
<g mask="url(#mask0_1_5908)">
<path fill-rule="evenodd" clip-rule="evenodd" d="M11.3203 11.0978C8.1452 9.79244 5.04342 8.67351 5.04342 5.83949C5.04342 3.67615 6.86826 2.44555 9.60477 2.44555C10.9189 2.44555 12.2329 2.8186 13.5825 3.78805C14.3124 4.38488 14.8239 4.9815 15.4437 5.95094C16.028 6.80915 16.4289 7.25628 17.0495 7.25628C17.7065 7.25628 18.0348 6.77156 17.9621 5.95094L17.4148 1.40137C17.3785 0.879278 17.1223 0.0217285 16.3562 0.0217285C15.5536 0.0217285 15.2619 0.804535 14.495 0.804535C13.6924 0.804535 12.1229 0.0217285 9.45914 0.0217285C4.24017 0.0217285 0.664066 2.9305 0.664066 7.25628C0.664066 12.0299 5.00707 13.8575 9.02116 15.4236C12.9262 16.9901 14.3494 18.0342 14.3494 20.16C14.3494 22.4348 12.4512 23.8894 9.34942 23.8894C7.23267 23.8894 5.73675 23.4044 4.38646 22.0244C3.76584 21.3534 3.29129 20.6447 2.7079 19.5258C2.19699 18.5561 1.79537 17.8476 1.02934 17.8476C0.408507 17.8476 -0.0658264 18.4442 0.00688157 19.153L0.298795 24.7841C0.372153 25.7166 0.810132 26.127 1.4301 26.127C2.34263 26.127 2.52526 25.1569 3.43757 25.1569C4.42281 25.1569 5.84602 26.3132 9.38578 26.3132C15.1883 26.3132 18.8017 23.0316 18.8017 18.5561C18.8017 14.566 15.9182 12.9621 11.3203 11.0978Z" fill="white"/>
</g>
<path fill-rule="evenodd" clip-rule="evenodd" d="M43.8088 23.7222C40.617 23.7222 38.123 20.4159 38.123 15.5833C38.123 11.7679 40.1402 9.47918 42.9281 9.47918C46.1565 9.47918 48.614 12.7127 48.614 17.5816C48.614 21.4696 46.6333 23.7222 43.8088 23.7222ZM43.6618 7.26241C37.7558 7.26241 33.5739 11.2233 33.5739 16.9277C33.5739 17.319 33.5978 17.7001 33.6391 18.0728C33.6391 18.0756 33.6372 18.0765 33.6374 18.0795C33.8018 20.6481 32.5518 21.7333 32.1542 22.0115C32.1141 22.0361 32.0743 22.0613 32.0352 22.0873C31.3748 22.4506 30.6046 22.8867 29.5039 22.8867C27.4128 22.8867 26.9725 21.3606 26.9725 18.6354V10.0607H31.8881C32.512 10.0607 32.9522 9.6244 32.9522 8.86127C32.9522 8.09836 32.512 7.62609 31.8881 7.62609H26.9725V3.12038C26.9725 2.46628 26.5323 2.10303 25.9456 2.10303C25.3218 2.10303 24.9181 2.46628 24.6614 2.97539C24.2583 3.91992 23.8912 5.40976 23.1212 6.31788C22.3503 7.29904 21.8002 7.51708 20.6265 7.98934C20.0399 8.24379 19.5996 8.53422 19.5996 9.15213C19.5996 9.69679 20.0024 10.0607 20.6265 10.0607H22.5704L22.5339 19.9798C22.4973 23.9766 24.368 25.9387 27.853 25.9387C29.619 25.9387 31.3111 25.2611 32.4324 24.4002C32.4374 24.3959 32.4424 24.3922 32.4474 24.3879C32.6299 24.2468 32.796 24.1007 32.9455 23.9523C33.799 23.1549 34.3822 22.3293 34.7809 21.5868C36.36 24.286 39.3715 25.9387 43.1117 25.9387C49.0177 25.9387 53.1996 21.9783 53.1996 16.2374C53.1996 10.9324 49.2378 7.26241 43.6618 7.26241Z" fill="white"/>
<path fill-rule="evenodd" clip-rule="evenodd" d="M65.8806 7.0105C64.0431 7.0105 61.6914 8.81867 60.5887 11.0251H60.4789V8.1316C60.4789 7.51722 60.1113 7.04717 59.413 7.04717C59.2293 7.04717 58.8986 7.08298 58.678 7.19149L55.628 8.0233C54.9665 8.20429 54.5996 8.56563 54.5996 9.07214C54.5996 9.47014 54.7826 9.72318 55.1138 10.012L55.5914 10.4463C56.1425 10.9528 56.2898 11.5674 56.2898 12.6522V20.4277C56.2898 21.8383 56.1425 22.3446 55.5914 22.8506L55.187 23.2849C54.746 23.6829 54.5996 23.9359 54.5996 24.2973C54.5996 24.9121 55.0397 25.2378 55.7753 25.2378H61.2502C61.9852 25.2378 62.4628 24.9121 62.4628 24.2973C62.4628 23.9359 62.3155 23.6829 61.8745 23.2849L61.4709 22.8506C60.9565 22.3446 60.7362 21.766 60.7362 20.4277V14.6412C60.7362 12.6162 62.2057 10.6633 63.8228 10.6633C65.2191 10.6633 65.4032 12.0737 66.6155 12.0737C67.6439 12.0737 68.5996 10.9528 68.5996 9.65048C68.5996 8.20429 67.6073 7.0105 65.8806 7.0105Z" fill="white"/>
<path fill-rule="evenodd" clip-rule="evenodd" d="M72.8187 4.90735C74.4414 4.90735 75.5995 4.00834 75.5995 2.43513C75.5995 0.89901 74.4414 0 72.8187 0C71.1577 0 69.9995 0.89901 69.9995 2.43513C69.9995 3.97102 71.1577 4.90735 72.8187 4.90735Z" fill="white"/>
<path fill-rule="evenodd" clip-rule="evenodd" d="M76.064 22.8508C75.5236 22.381 75.3444 21.7662 75.3444 20.4278V8.05956C75.3444 7.40851 74.9484 7.0105 74.3366 7.0105C74.0848 7.0105 73.7614 7.08298 73.4736 7.15546L70.3072 7.95105C69.6953 8.09558 69.2993 8.49338 69.2993 8.99989C69.2993 9.36145 69.4433 9.57846 69.8395 9.94002L70.3072 10.3743C70.8109 10.8443 70.9907 11.3864 70.9907 12.6163V20.4278C70.9907 21.8384 70.8109 22.3449 70.3072 22.8508L69.9112 23.2851C69.4792 23.6829 69.2993 23.9361 69.2993 24.2977C69.2993 24.9123 69.767 25.2378 70.4507 25.2378H75.8123C76.5317 25.2378 76.9993 24.9123 76.9993 24.2977C76.9993 23.9361 76.8195 23.6829 76.4233 23.2851L76.064 22.8508Z" fill="white"/>
<path fill-rule="evenodd" clip-rule="evenodd" d="M87.0182 9.03601C89.7282 9.03601 90.8041 10.9877 90.8041 12.8291C90.8041 14.0074 89.9507 14.3022 89.0969 14.3022H82.3406C82.7115 11.0615 84.5676 9.03601 87.0182 9.03601ZM105.615 14.4496C103.054 13.75 100.789 13.1608 100.789 11.3561C100.789 10.1042 102.051 9.14672 104.056 9.14672C107.768 9.14672 107.657 11.9085 109.624 11.9085C110.552 11.9085 111.369 11.2827 111.369 10.2514C111.369 8.22611 108.139 7.0105 104.538 7.0105C99.7865 7.0105 96.7794 9.36748 96.7794 12.7184C96.7794 16.659 100.603 17.5796 103.721 18.5004C105.986 19.1633 107.873 19.4284 107.873 21.0118C107.873 22.3741 106.259 23.484 103.883 23.484C98.6586 23.484 98.2974 18.9166 96.1873 19.0716C96.0691 19.0716 95.9509 19.0961 95.8318 19.1358C95.8252 19.138 95.8186 19.1402 95.812 19.1424C95.5628 19.2299 95.3079 19.3915 95.0363 19.5872C93.8115 20.5816 92.2992 23.0663 88.3911 22.9194C84.7562 22.7827 82.5266 20.4521 82.3034 16.3277H92.7353C94.1459 16.3277 95.0363 15.3698 95.0363 13.6759C95.0363 9.73585 91.881 7.0105 87.2403 7.0105C81.746 7.0105 77.6997 10.951 77.6997 16.6959C77.6997 22.2564 80.6978 25.9388 87.8248 25.9388C89.7407 25.9388 93.6999 24.4276 95.7202 22.3881C95.7864 22.3213 95.8939 22.3307 95.9485 22.4073C97.0552 23.9598 99.7271 25.9388 104.072 25.9388C109.492 25.9388 112 23.4718 112 19.9732C112 16.3646 108.622 15.2966 105.615 14.4496Z" fill="white"/>
<path fill-rule="evenodd" clip-rule="evenodd" d="M18.8994 32.2483H25.1994V33.9761H20.7587V36.6027H24.4637V38.3444H20.7587V42.063H18.8994V32.2483Z" fill="white"/>
<path fill-rule="evenodd" clip-rule="evenodd" d="M27.2993 32.2483H29.2707V40.335H33.5993V42.063H27.2993V32.2483Z" fill="white"/>
<path fill-rule="evenodd" clip-rule="evenodd" d="M41.9801 39.3937C42.5315 38.8006 42.8069 38.0543 42.8069 37.1559C42.8069 36.257 42.5315 35.5109 41.9801 34.9178C41.429 34.3246 40.7377 34.0279 39.9062 34.0279C39.0479 34.0279 38.3454 34.329 37.7986 34.9311C37.2519 35.5332 36.9786 36.275 36.9786 37.1559C36.9786 38.0365 37.2519 38.7781 37.7986 39.3802C38.3454 39.9823 39.0479 40.2834 39.9062 40.2834C40.7377 40.2834 41.429 39.9869 41.9801 39.3937ZM36.3687 40.6812C35.4559 39.7598 34.9995 38.5847 34.9995 37.1559C34.9995 35.7265 35.4559 34.5515 36.3687 33.6303C37.2812 32.709 38.4606 32.2483 39.9062 32.2483C41.325 32.2483 42.4951 32.7044 43.4169 33.6167C44.3387 34.5289 44.7995 35.7086 44.7995 37.1559C44.7995 38.6027 44.3387 39.7824 43.4169 40.6946C42.4951 41.6069 41.325 42.063 39.9062 42.063C38.4606 42.063 37.2812 41.6025 36.3687 40.6812Z" fill="white"/>
<path fill-rule="evenodd" clip-rule="evenodd" d="M53.88 39.3937C54.4312 38.8006 54.7068 38.0543 54.7068 37.1559C54.7068 36.257 54.4312 35.5109 53.88 34.9178C53.3289 34.3246 52.6376 34.0279 51.8061 34.0279C50.9478 34.0279 50.2453 34.329 49.6985 34.9311C49.1518 35.5332 48.8783 36.275 48.8783 37.1559C48.8783 38.0365 49.1518 38.7781 49.6985 39.3802C50.2453 39.9823 50.9478 40.2834 51.8061 40.2834C52.6376 40.2834 53.3289 39.9869 53.88 39.3937ZM48.2683 40.6812C47.3558 39.7598 46.8994 38.5847 46.8994 37.1559C46.8994 35.7265 47.3558 34.5515 48.2683 33.6303C49.1811 32.709 50.3605 32.2483 51.8061 32.2483C53.2249 32.2483 54.395 32.7044 55.3168 33.6167C56.2384 34.5289 56.6994 35.7086 56.6994 37.1559C56.6994 38.6027 56.2384 39.7824 55.3168 40.6946C54.395 41.6069 53.2249 42.063 51.8061 42.063C50.3605 42.063 49.1811 41.6025 48.2683 40.6812Z" fill="white"/>
<path fill-rule="evenodd" clip-rule="evenodd" d="M62.5892 36.9897C63.1276 36.9897 63.5399 36.8537 63.8263 36.582C64.1129 36.31 64.2559 35.9437 64.2559 35.4828C64.2559 35.0221 64.1191 34.6559 63.8455 34.384C63.5722 34.1121 63.1789 33.9761 62.6661 33.9761H61.2817V36.9897H62.5892ZM59.4995 32.2483H62.9483C63.9995 32.2483 64.7901 32.5454 65.3202 33.1398C65.85 33.7343 66.1149 34.5247 66.1149 35.5104C66.1149 37.0405 65.4825 38.0266 64.2173 38.4687L66.4995 42.063H64.3584L62.3199 38.7038H61.2817V42.063H59.4995V32.2483Z" fill="white"/>
<path fill-rule="evenodd" clip-rule="evenodd" d="M68.5996 42.063H70.6996V32.2483H68.5996V42.063Z" fill="white"/>
<path fill-rule="evenodd" clip-rule="evenodd" d="M74.1997 32.2483H75.9766L80.0842 38.8699H80.11V32.2483H81.8997V42.063H80.0842L76.0281 35.5796H76.0024V42.063H74.1997V32.2483Z" fill="white"/>
<path fill-rule="evenodd" clip-rule="evenodd" d="M86.0343 40.7515C85.1447 39.8774 84.6997 38.6879 84.6997 37.1828C84.6997 35.7407 85.1205 34.5578 85.9622 33.6341C86.804 32.7103 87.9359 32.2483 89.3577 32.2483C90.0469 32.2483 90.7185 32.3881 91.3726 32.6674C92.0269 32.9468 92.5851 33.3523 93.0474 33.884L91.7521 35.0467C91.1067 34.3798 90.3086 34.0464 89.3577 34.0464C88.5727 34.0464 87.9205 34.3304 87.4017 34.8981C86.8827 35.466 86.6231 36.2274 86.6231 37.1828C86.6231 38.0929 86.8782 38.8457 87.3885 39.4405C87.8988 40.0352 88.5815 40.3326 89.4362 40.3326C90.108 40.3326 90.7315 40.1477 91.3071 39.7785V38.3723H89.2269V36.7366H93.0997V40.8733C92.6636 41.2339 92.1184 41.5223 91.4643 41.7386C90.81 41.9549 90.1341 42.063 89.4362 42.063C88.058 42.063 86.9241 41.6258 86.0343 40.7515Z" fill="white"/>
</g>
<defs>
<clipPath id="clip0_1_5908">
<rect width="112" height="42.9393" fill="white"/>
</clipPath>
</defs>
</svg>
