<?xml version="1.0" encoding="UTF-8"?>
<svg width="128px" height="49px" viewBox="0 0 128 49" version="1.1" xmlns="http://www.w3.org/2000/svg" xmlns:xlink="http://www.w3.org/1999/xlink">
    <title>Stories FLooring Dark Logo</title>
    <defs>
        <polygon id="path-1" points="0.0148383621 0.0247296875 21.488174 0.0247296875 21.488174 30.0271398 0.0148383621 30.0271398"></polygon>
    </defs>
    <g id="Symbols" stroke="none" stroke-width="1" fill="none" fill-rule="evenodd">
        <g id="logos/dark" transform="translate(-36.000000, -12.000000)">
            <g id="Stories_Logo" transform="translate(36.000000, 12.000000)">
                <g id="Group-3">
                    <mask id="mask-2" fill="white">
                        <use xlink:href="#path-1"></use>
                    </mask>
                    <g id="Clip-2"></g>
                    <path d="M12.9380625,12.6641234 C9.30934106,11.1745383 5.76445636,9.89767891 5.76445636,6.66364141 C5.76445636,4.1949625 7.84998815,2.79066953 10.9774203,2.79066953 C12.4793098,2.79066953 13.980952,3.21637344 15.5233998,4.32264844 C16.357563,5.00372422 16.9421945,5.68454766 17.650479,6.79082266 C18.3182053,7.77016875 18.7764634,8.28040781 19.4857371,8.28040781 C20.2365582,8.28040781 20.6117214,7.72727031 20.5286266,6.79082266 L19.9031897,1.59910234 C19.8616422,1.00331875 19.5688319,0.0247296875 18.6933685,0.0247296875 C17.7761105,0.0247296875 17.4427419,0.918026563 16.5662893,0.918026563 C15.6490313,0.918026563 13.8553206,0.0247296875 10.8109833,0.0247296875 C4.84645636,0.0247296875 0.759476832,3.34405938 0.759476832,8.28040781 C0.759476832,13.7277523 5.72290894,15.8133734 10.3104359,17.6004719 C14.7733206,19.388075 16.3998524,20.5796422 16.3998524,23.0054227 C16.3998524,25.6012828 14.2304838,27.2612 10.6855991,27.2612 C8.26645151,27.2612 6.55682489,26.7078102 5.01363524,25.1329328 C4.30436153,24.3673219 3.7620194,23.5585602 3.09528233,22.2817008 C2.51139278,21.1751734 2.05239278,20.3666641 1.17692942,20.3666641 C0.467408405,20.3666641 -0.0746864224,21.0474875 0.00840840517,21.8562492 L0.342024246,28.2821828 C0.425860991,29.3463164 0.926408405,29.8146664 1.63494019,29.8146664 C2.67782974,29.8146664 2.88655603,28.7076344 3.92919828,28.7076344 C5.05518265,28.7076344 6.68171444,30.0271398 10.7271466,30.0271398 C17.3586579,30.0271398 21.488174,26.2823586 21.488174,21.1751734 C21.488174,16.6218828 18.1928211,14.7916336 12.9380625,12.6641234" id="Fill-1" fill="#174568" mask="url(#mask-2)"></path>
                </g>
                <path d="M50.0676783,27.0705908 C46.4198871,27.0705908 43.5695686,23.2976209 43.5695686,17.7829778 C43.5695686,13.4290404 45.8749806,10.8172681 49.0611425,10.8172681 C52.7506966,10.8172681 55.5592522,14.5071372 55.5592522,20.0633307 C55.5592522,24.5001229 53.2956031,27.0705908 50.0676783,27.0705908 Z M49.8996323,8.28761299 C43.1499508,8.28761299 38.3705837,12.807506 38.3705837,19.3171451 C38.3705837,19.7636272 38.3979284,20.1985538 38.4451603,20.6238918 C38.4451603,20.627088 38.442923,20.6280714 38.4431716,20.6315135 C38.6311047,23.5626582 37.2024652,24.8010558 36.748045,25.1184612 C36.7023046,25.1464893 36.6568129,25.1752549 36.6120669,25.205004 C35.8573515,25.6195242 34.9770988,26.1171451 33.7192397,26.1171451 C31.3293076,26.1171451 30.826164,24.3757177 30.826164,21.2658327 L30.826164,11.4808446 L36.4440209,11.4808446 C37.1569734,11.4808446 37.660117,10.9829778 37.660117,10.1121412 C37.660117,9.24155037 37.1569734,8.70262492 36.4440209,8.70262492 L30.826164,8.70262492 L30.826164,3.56095162 C30.826164,2.81452021 30.3230204,2.4 29.6525765,2.4 C28.939624,2.4 28.4782433,2.81452021 28.1849086,3.39548774 C27.7242737,4.47333864 27.3046559,6.17346157 26.4246517,7.20976209 C25.5436532,8.32940921 24.9149723,8.57821968 23.5735874,9.11714513 C22.9031436,9.40750597 22.4,9.73892545 22.4,10.4440524 C22.4,11.0655868 22.8603863,11.4808446 23.5735874,11.4808446 L25.795225,11.4808446 L25.7534621,22.8 C25.7116992,27.3609516 27.8495624,29.6 31.8324512,29.6 C33.8507432,29.6 35.784515,28.8267698 37.06599,27.8443127 L37.0662385,27.8448044 C37.0719561,27.8398872 37.077425,27.8352159 37.0831426,27.8302986 C37.2917085,27.6692603 37.4816303,27.5025671 37.6524108,27.3331694 C38.627873,26.423241 39.2943394,25.4811049 39.7500026,24.6338709 C41.5547568,27.7140068 44.996468,29.6 49.2709514,29.6 C56.0206329,29.6 60.8,25.0805987 60.8,18.5294092 C60.8,12.4755948 56.2722047,8.28761299 49.8996323,8.28761299 L49.8996323,8.28761299 Z" id="Fill-4" fill="#174568"></path>
                <path d="M75.2925342,8 C73.1925856,8 70.5049601,10.0633843 69.2446921,12.5811927 L69.1191882,12.5811927 L69.1191882,9.2793374 C69.1191882,8.5782468 68.6990989,8.0418452 67.9010038,8.0418452 C67.6910837,8.0418452 67.313078,8.08271156 67.0610742,8.20653419 L63.5753537,9.15575948 C62.8193423,9.36229367 62.4,9.77462794 62.4,10.35263 C62.4,10.8068095 62.6091731,11.0955658 62.9876768,11.4251885 L63.5335191,11.9207238 C64.1632795,12.4987259 64.3316141,13.2000612 64.3316141,14.4380428 L64.3316141,23.3109378 C64.3316141,24.920632 64.1632795,25.4983894 63.5335191,26.0759021 L63.0713461,26.5714373 C62.5673385,27.0256168 62.4,27.3143731 62.4,27.7267074 C62.4,28.4282874 62.9030115,28.8 63.7436882,28.8 L70.0007035,28.8 C70.8406331,28.8 71.3864753,28.4282874 71.3864753,27.7267074 C71.3864753,27.3143731 71.2181408,27.0256168 70.7141332,26.5714373 L70.2529563,26.0759021 C69.6650304,25.4983894 69.4132756,24.8381652 69.4132756,23.3109378 L69.4132756,16.7077166 C69.4132756,14.3969317 71.0926369,12.168369 72.9408308,12.168369 C74.5365228,12.168369 74.746941,13.7778186 76.1324639,13.7778186 C77.3078175,13.7778186 78.4,12.4987259 78.4,11.0126096 C78.4,9.36229367 77.2659829,8 75.2925342,8" id="Fill-5" fill="#174568"></path>
                <path d="M83.2219859,5.6 C85.0763946,5.6 86.4,4.57409805 86.4,2.77883301 C86.4,1.02590195 85.0763946,0 83.2219859,0 C81.3236054,0 80,1.02590195 80,2.77883301 C80,4.53151057 81.3236054,5.6 83.2219859,5.6" id="Fill-6" fill="#174568"></path>
                <path d="M86.9310872,26.0761147 C86.3134878,25.5399515 86.1086778,24.8383633 86.1086778,23.3111179 L86.1086778,9.19712934 C86.1086778,8.4541848 85.6561454,8 84.9568658,8 C84.6691566,8 84.2995234,8.08271253 83.9706084,8.16542507 L80.351812,9.07330525 C79.6525324,9.2382409 79.2,9.69218099 79.2,10.2701899 C79.2,10.6827737 79.3645794,10.9304219 79.8173556,11.3430057 L80.351812,11.8385468 C80.9274742,12.3749547 81.1330156,12.9935857 81.1330156,14.397007 L81.1330156,23.3111179 C81.1330156,24.9208311 80.9274742,25.49884 80.351812,26.0761147 L79.8992796,26.5716558 C79.4055414,27.0255959 79.2,27.3146003 79.2,27.7271842 C79.2,28.4285277 79.7344564,28.8 80.5159038,28.8 L86.643378,28.8 C87.4655436,28.8 88,28.4285277 88,27.7271842 C88,27.3146003 87.7944586,27.0255959 87.3416824,26.5716558 L86.9310872,26.0761147" id="Fill-7" fill="#174568"></path>
                <path d="M99.449743,10.3114023 C102.54683,10.3114023 103.776508,12.5385815 103.776508,14.6399243 C103.776508,15.9845046 102.801168,16.3208989 101.825325,16.3208989 L94.1038653,16.3208989 C94.527762,12.6228047 96.6490062,10.3114023 99.449743,10.3114023 Z M120.70294,16.489096 C117.775915,15.6907203 115.187755,15.0184302 115.187755,12.9589497 C115.187755,11.5303955 116.629759,10.4377371 118.921316,10.4377371 C123.163301,10.4377371 123.03651,13.5893775 125.284797,13.5893775 C126.345419,13.5893775 127.279501,12.875225 127.279501,11.6983434 C127.279501,9.38719025 123.587953,8 119.472759,8 C114.042102,8 110.605395,10.689659 110.605395,14.5135896 C110.605395,19.0103087 114.975178,20.0608555 118.538929,21.1116515 C121.12734,21.8681648 123.283301,22.1706705 123.283301,23.9774814 C123.283301,25.5321213 121.439287,26.798708 118.724085,26.798708 C112.753054,26.798708 112.340226,21.5865904 109.928669,21.7635088 C109.793576,21.7635088 109.658482,21.7914171 109.522383,21.836768 C109.514836,21.8392598 109.507288,21.8417516 109.499741,21.8442435 C109.214963,21.944165 108.923644,22.1285589 108.613206,22.351825 C107.213467,23.486595 105.485176,26.3220248 101.01879,26.1543261 C96.8646023,25.9983388 94.3164426,23.3388307 94.0613499,18.6323012 L105.983538,18.6323012 C107.595603,18.6323012 108.613206,17.5391445 108.613206,15.606248 C108.613206,11.1100272 105.007192,8 99.7035778,8 C93.4243728,8 88.8,12.4967191 88.8,19.0524203 C88.8,25.3978127 92.2263931,29.6 100.371498,29.6 C102.56117,29.6 107.08592,27.8754188 109.394836,25.5480688 C109.470559,25.4718195 109.593326,25.4825343 109.655715,25.5699968 C110.920613,27.3416732 113.974178,29.6 118.940184,29.6 C125.13461,29.6 128,26.7847538 128,22.7923769 C128,18.6744128 124.139647,17.4556689 120.70294,16.489096 L120.70294,16.489096 Z" id="Fill-8" fill="#174568"></path>
                <polyline id="Fill-9" fill="#174568" points="21.6 36.8 28.8 36.8 28.8 38.7716883 23.7248835 38.7716883 23.7248835 41.7689725 27.959242 41.7689725 27.959242 43.7565616 23.7248835 43.7565616 23.7248835 48 21.6 48 21.6 36.8"></polyline>
                <polyline id="Fill-10" fill="#174568" points="31.2 36.8 33.4530577 36.8 33.4530577 46.0280552 38.4 46.0280552 38.4 48 31.2 48 31.2 36.8"></polyline>
                <path d="M47.9778372,44.9540042 C48.6079647,44.2771718 48.9227766,43.4255036 48.9227766,42.4002501 C48.9227766,41.3744964 48.6079647,40.5230783 47.9778372,39.8462459 C47.3479616,39.1694136 46.5579096,38.8307472 45.6076814,38.8307472 C44.6267275,38.8307472 43.8238313,39.174416 43.1989926,39.8615034 C42.5741539,40.5485908 42.2618605,41.3950065 42.2618605,42.4002501 C42.2618605,43.4052436 42.5741539,44.2514092 43.1989926,44.9384966 C43.8238313,45.625584 44.6267275,45.9692528 45.6076814,45.9692528 C46.5579096,45.9692528 47.3479616,45.6308366 47.9778372,44.9540042 Z M41.5647411,46.4232257 C40.5215804,45.3717093 40,44.0308008 40,42.4002501 C40,40.7691992 40.5215804,39.4282907 41.5647411,38.3770244 C42.6076499,37.3257582 43.9555486,36.8 45.6076814,36.8 C47.2290886,36.8 48.5664096,37.3205056 49.6198961,38.3615168 C50.6733827,39.402528 51.2,40.7486891 51.2,42.4002501 C51.2,44.0513109 50.6733827,45.397472 49.6198961,46.4384832 C48.5664096,47.4794944 47.2290886,48 45.6076814,48 C43.9555486,48 42.6076499,47.4744919 41.5647411,46.4232257 L41.5647411,46.4232257 Z" id="Fill-11" fill="#174568"></path>
                <path d="M61.5778372,44.9540042 C62.2077129,44.2771718 62.5227766,43.4255036 62.5227766,42.4002501 C62.5227766,41.3744964 62.2077129,40.5230783 61.5778372,39.8462459 C60.9479616,39.1694136 60.1579096,38.8307472 59.2076814,38.8307472 C58.2267275,38.8307472 57.4238313,39.174416 56.7989926,39.8615034 C56.1741539,40.5485908 55.8616087,41.3950065 55.8616087,42.4002501 C55.8616087,43.4052436 56.1741539,44.2514092 56.7989926,44.9384966 C57.4238313,45.625584 58.2267275,45.9692528 59.2076814,45.9692528 C60.1579096,45.9692528 60.9479616,45.6308366 61.5778372,44.9540042 Z M55.1644892,46.4232257 C54.1215804,45.3717093 53.6,44.0308008 53.6,42.4002501 C53.6,40.7691992 54.1215804,39.4282907 55.1644892,38.3770244 C56.2076499,37.3257582 57.5555486,36.8 59.2076814,36.8 C60.8290886,36.8 62.1664096,37.3205056 63.2198961,38.3615168 C64.2731308,39.402528 64.8,40.7486891 64.8,42.4002501 C64.8,44.0513109 64.2731308,45.397472 63.2198961,46.4384832 C62.1664096,47.4794944 60.8290886,48 59.2076814,48 C57.5555486,48 56.2076499,47.4744919 55.1644892,46.4232257 L55.1644892,46.4232257 Z" id="Fill-12" fill="#174568"></path>
                <path d="M71.5310723,42.210602 C72.1463836,42.210602 72.6175744,42.0554418 72.9448828,41.7453779 C73.2724295,41.4350576 73.4358455,41.0170227 73.4358455,40.4910169 C73.4358455,39.9652676 73.279576,39.5474892 72.9667987,39.2371688 C72.6544978,38.9268485 72.2049847,38.7716883 71.6189739,38.7716883 L70.0367448,38.7716883 L70.0367448,42.210602 L71.5310723,42.210602 Z M68,36.8 L71.941518,36.8 C73.1428401,36.8 74.0463925,37.1390442 74.6521752,37.8173891 C75.2577197,38.495734 75.5604919,39.3977147 75.5604919,40.5225619 C75.5604919,42.2685627 74.8377453,43.3939227 73.3917756,43.8983857 L76,48 L73.5530477,48 L71.2232975,44.1666461 L70.0367448,44.1666461 L70.0367448,48 L68,48 L68,36.8 L68,36.8 Z" id="Fill-13" fill="#174568"></path>
                <polygon id="Fill-14" fill="#174568" points="78.4 48 80.8 48 80.8 36.8 78.4 36.8"></polygon>
                <polyline id="Fill-15" fill="#174568" points="84.8 36.8 86.8307876 36.8 91.5251896 44.3561723 91.5546179 44.3561723 91.5546179 36.8 93.6 36.8 93.6 48 91.5251896 48 86.8896441 40.6015525 86.8602159 40.6015525 86.8602159 48 84.8 48 84.8 36.8"></polyline>
                <path d="M98.3252836,46.5034061 C97.30859,45.5059277 96.8,44.1485343 96.8,42.4309753 C96.8,40.7853992 97.2808752,39.4355302 98.2428687,38.3813683 C99.2048622,37.3272064 100.49846,36.8 102.12342,36.8 C102.911102,36.8 103.678606,36.9595163 104.426175,37.2782981 C105.173987,37.5970798 105.811912,38.0598276 106.340194,38.6665413 L104.859887,39.9933356 C104.122285,39.2323726 103.21013,38.8518912 102.12342,38.8518912 C101.226337,38.8518912 100.480956,39.17594 99.8880065,39.8237868 C99.2948136,40.4718844 98.9982172,41.3406965 98.9982172,42.4309753 C98.9982172,43.4695868 99.2897083,44.3286172 99.8729335,45.0073139 C100.456159,45.6860105 101.236305,46.0253589 102.213128,46.0253589 C102.980875,46.0253589 103.693436,45.8144262 104.351297,45.3930624 L104.351297,43.7883686 L101.973906,43.7883686 L101.973906,41.9218273 L106.4,41.9218273 L106.4,46.6423558 C105.901621,47.053938 105.278525,47.383003 104.530956,47.6298018 C103.783144,47.8766006 103.010778,48 102.213128,48 C100.638006,48 99.3422204,47.5011354 98.3252836,46.5034061" id="Fill-16" fill="#174568"></path>
            </g>
        </g>
    </g>
</svg>
