<?xml version="1.0" encoding="UTF-8"?>
<svg width="100px" height="100px" viewBox="0 0 100 100" version="1.1" xmlns="http://www.w3.org/2000/svg" xmlns:xlink="http://www.w3.org/1999/xlink">
    <title>icons/rooms/office</title>
    <g id="icons/rooms/office" stroke="none" stroke-width="1" fill="none" fill-rule="evenodd">
        <path d="M6.19982527,7 L93.8049725,7 C97.0509297,7 100,9.88014925 100,13.0502471 L100,74.1210911 C100,77.2911889 97.0509297,80.1713382 93.8049725,80.1713382 L56.638607,80.1713382 L56.638607,86.7976737 L65.4859179,86.7976737 C67.552227,86.7976737 69.3216492,88.5257437 69.3216492,90.2539114 L69.3216492,94 L30.6783487,94 L30.6783487,90.2539114 C30.6783487,88.5258414 32.4477709,86.7976737 34.2172931,86.7976737 L43.3613909,86.7976737 L43.3613909,80.1713382 L6.19502748,80.1713382 C2.94907024,80.1713382 0,77.2911889 0,74.1210911 L0,13.0502471 C0,9.88014925 2.94907024,7 6.19502748,7 L6.19982527,7 Z M49.8539054,69.2271226 C51.3304405,69.2271226 52.5099886,70.3792018 52.5099886,71.821132 C52.5099886,73.2631598 51.3303405,74.4151414 49.8539054,74.4151414 C48.3773703,74.4151414 47.1978222,73.2630621 47.1978222,71.821132 C47.1978222,70.3791042 48.3774703,69.2271226 49.8539054,69.2271226 Z M7.37877042,14.2023263 L92.3320372,14.2023263 L92.3320372,63.1761919 L7.37877042,63.1761919 L7.37877042,14.2023263 Z" id="Fill-1" fill="#FF877A"></path>
    </g>
</svg>