<?xml version="1.0" encoding="UTF-8"?>
<svg width="100px" height="100px" viewBox="0 0 100 100" version="1.1" xmlns="http://www.w3.org/2000/svg" xmlns:xlink="http://www.w3.org/1999/xlink">
    <title>icons/rooms/staircase</title>
    <g id="icons/rooms/staircase" stroke="none" stroke-width="1" fill="none" fill-rule="evenodd">
        <path d="M0,72.289118 L5.00350973,72.289118 L5.00350973,55.515685 L13.3426593,55.515685 L13.3426593,38.773433 L21.6818088,38.773433 L21.6818088,22 L78.3493887,22 L78.3493887,38.773433 L86.6573407,38.773433 L86.6573407,55.515685 L94.9964903,55.515685 L94.9964903,72.289118 L100,72.289118 L100,79 L0.00780044757,79 L0.00780044757,72.289118 L0,72.289118 Z M11.6440918,72.289118 L88.3531085,72.289118 L88.3531085,62.2226442 L11.6400921,62.2226442 L11.6400921,72.289118 L11.6440918,72.289118 Z M79.9827613,55.515685 L79.9827613,45.4807946 L20.0104392,45.4807946 L20.0104392,55.515685 L79.9827613,55.515685 Z M71.6748094,38.773433 L71.6748094,28.7069592 L28.3501887,28.7069592 L28.3501887,38.773433 L71.6748094,38.773433 Z" id="Fill-1" fill="#FF877A"></path>
    </g>
</svg>