<svg width="1399px" height="101px" viewBox="0 0 1399 101" version="1.1" xmlns="http://www.w3.org/2000/svg" xmlns:xlink="http://www.w3.org/1999/xlink">
    <defs>
        <path d="M50.38852,87.68 L50.38852,79.6816 L10.29654,79.6816 L10.29654,54.98654 L47.38912,54.98654 L47.38912,46.98814 L10.29654,46.98814 L10.29654,24.29268 L50.08858,24.29268 L50.08858,16.29428 L0.79844,16.29428 L0.79844,87.68 L50.38852,87.68 Z M65.28554,87.68 L79.68266,66.28428 L94.07978,87.68 L104.9776,87.68 L84.9816,59.78558 L102.77804,35.99034 L92.58008,35.99034 L79.68266,54.08672 L67.28514,35.99034 L56.38732,35.99034 L74.38372,60.48544 L54.9876,87.68 L65.28554,87.68 Z M133.67186,88.77978 C140.27054,88.77978 145.486163,87.0467933 149.31873,83.58082 C153.151297,80.1148467 155.534153,75.1825 156.4673,68.78378 L147.76904,68.78378 C147.235813,72.78298 145.786103,75.88236 143.41991,78.08192 C141.053717,80.28148 137.77104,81.38126 133.57188,81.38126 C130.905747,81.38126 128.606207,80.8480333 126.67326,79.78158 C124.740313,78.7151267 123.17396,77.2987433 121.9742,75.53243 C120.77444,73.7661167 119.891283,71.7498533 119.32473,69.48364 C118.758177,67.2174267 118.4749,64.88456 118.4749,62.48504 C118.4749,59.88556 118.741513,57.3693967 119.27474,54.93655 C119.807967,52.5037033 120.691123,50.3541333 121.92421,48.48784 C123.157297,46.6215467 124.806967,45.1218467 126.87322,43.98874 C128.939473,42.8556333 131.505627,42.28908 134.57168,42.28908 C138.17096,42.28908 141.037053,43.1889 143.16996,44.98854 C145.302867,46.78818 146.702587,49.3210067 147.36912,52.58702 L156.16736,52.58702 C155.834093,49.5209667 155.034253,46.8714967 153.76784,44.63861 C152.501427,42.4057233 150.885083,40.5560933 148.91881,39.08972 C146.952537,37.6233467 144.686323,36.54023 142.12017,35.84037 C139.554017,35.14051 136.804567,34.79058 133.87182,34.79058 C129.805967,34.79058 126.240013,35.5071033 123.17396,36.94015 C120.107907,38.3731967 117.558417,40.33947 115.52549,42.83897 C113.492563,45.33847 111.9762,48.2712167 110.9764,51.63721 C109.9766,55.0032033 109.4767,58.6191467 109.4767,62.48504 C109.4767,66.3509333 109.993263,69.9002233 111.02639,73.13291 C112.059517,76.3655967 113.592543,79.1483733 115.62547,81.48124 C117.658397,83.8141067 120.191223,85.6137467 123.22395,86.88016 C126.256677,88.1465733 129.739313,88.77978 133.67186,88.77978 Z M187.961,88.77978 C193.826493,88.77978 198.692187,87.3134067 202.55808,84.38066 C206.423973,81.4479133 208.923473,77.08212 210.05658,71.28328 L201.65826,71.28328 C200.925073,74.6826 199.40871,77.2154267 197.10917,78.88176 C194.80963,80.5480933 191.86022,81.38126 188.26094,81.38126 C185.4615,81.38126 183.028653,80.9146867 180.9624,79.98154 C178.896147,79.0483933 177.196487,77.7986433 175.86342,76.23229 C174.530353,74.6659367 173.56388,72.8662967 172.964,70.83337 C172.36412,68.8004433 172.097507,66.6508733 172.16416,64.38466 L210.85642,64.38466 C210.989727,61.2519533 210.70645,57.9526133 210.00659,54.48664 C209.30673,51.0206667 208.040317,47.8213067 206.20735,44.88856 C204.374383,41.9558133 201.941537,39.53963 198.90881,37.64001 C195.876083,35.74039 192.06018,34.79058 187.4611,34.79058 C183.928473,34.79058 180.679123,35.4571133 177.71305,36.79018 C174.746977,38.1232467 172.180823,39.98954 170.01459,42.38906 C167.848357,44.78858 166.16536,47.6213467 164.9656,50.88736 C163.76584,54.1533733 163.16596,57.7526533 163.16596,61.6852 C163.299267,65.6177467 163.882483,69.2503533 164.91561,72.58302 C165.948737,75.9156867 167.498427,78.78178 169.56468,81.1813 C171.630933,83.58082 174.180423,85.4471133 177.21315,86.78018 C180.245877,88.1132467 183.828493,88.77978 187.961,88.77978 Z M201.85822,56.88616 L172.16416,56.88616 C172.297467,54.88656 172.730713,53.0036033 173.4639,51.23729 C174.197087,49.4709767 175.196887,47.9212867 176.4633,46.58822 C177.729713,45.2551533 179.246077,44.2053633 181.01239,43.43885 C182.778703,42.6723367 184.76164,42.28908 186.9612,42.28908 C189.094107,42.28908 191.043717,42.6723367 192.81003,43.43885 C194.576343,44.2053633 196.10937,45.23849 197.40911,46.53823 C198.70885,47.83797 199.741977,49.38766 200.50849,51.1873 C201.275003,52.98694 201.724913,54.88656 201.85822,56.88616 Z M228.65286,87.68 L228.65286,16.29428 L220.15456,16.29428 L220.15456,87.68 L228.65286,87.68 Z M250.84842,87.68 L250.84842,16.29428 L242.35012,16.29428 L242.35012,87.68 L250.84842,87.68 Z M286.04138,88.77978 C291.906873,88.77978 296.772567,87.3134067 300.63846,84.38066 C304.504353,81.4479133 307.003853,77.08212 308.13696,71.28328 L299.73864,71.28328 C299.005453,74.6826 297.48909,77.2154267 295.18955,78.88176 C292.89001,80.5480933 289.9406,81.38126 286.34132,81.38126 C283.54188,81.38126 281.109033,80.9146867 279.04278,79.98154 C276.976527,79.0483933 275.276867,77.7986433 273.9438,76.23229 C272.610733,74.6659367 271.64426,72.8662967 271.04438,70.83337 C270.4445,68.8004433 270.177887,66.6508733 270.24454,64.38466 L308.9368,64.38466 C309.070107,61.2519533 308.78683,57.9526133 308.08697,54.48664 C307.38711,51.0206667 306.120697,47.8213067 304.28773,44.88856 C302.454763,41.9558133 300.021917,39.53963 296.98919,37.64001 C293.956463,35.74039 290.14056,34.79058 285.54148,34.79058 C282.008853,34.79058 278.759503,35.4571133 275.79343,36.79018 C272.827357,38.1232467 270.261203,39.98954 268.09497,42.38906 C265.928737,44.78858 264.24574,47.6213467 263.04598,50.88736 C261.84622,54.1533733 261.24634,57.7526533 261.24634,61.6852 C261.379647,65.6177467 261.962863,69.2503533 262.99599,72.58302 C264.029117,75.9156867 265.578807,78.78178 267.64506,81.1813 C269.711313,83.58082 272.260803,85.4471133 275.29353,86.78018 C278.326257,88.1132467 281.908873,88.77978 286.04138,88.77978 Z M299.9386,56.88616 L270.24454,56.88616 C270.377847,54.88656 270.811093,53.0036033 271.54428,51.23729 C272.277467,49.4709767 273.277267,47.9212867 274.54368,46.58822 C275.810093,45.2551533 277.326457,44.2053633 279.09277,43.43885 C280.859083,42.6723367 282.84202,42.28908 285.04158,42.28908 C287.174487,42.28908 289.124097,42.6723367 290.89041,43.43885 C292.656723,44.2053633 294.18975,45.23849 295.48949,46.53823 C296.78923,47.83797 297.822357,49.38766 298.58887,51.1873 C299.355383,52.98694 299.805293,54.88656 299.9386,56.88616 Z M326.23334,87.68 L326.23334,58.48584 C326.23334,56.1529733 326.549943,54.0034033 327.18315,52.03713 C327.816357,50.0708567 328.766167,48.3545333 330.03258,46.88816 C331.298993,45.4217867 332.88201,44.28868 334.78163,43.48884 C336.68125,42.689 338.9308,42.28908 341.53028,42.28908 C344.796293,42.28908 347.362447,43.2222267 349.22874,45.08852 C351.095033,46.9548133 352.02818,49.48764 352.02818,52.687 L352.02818,87.68 L360.52648,87.68 L360.52648,53.6868 C360.52648,50.88736 360.243203,48.33787 359.67665,46.03833 C359.110097,43.73879 358.12696,41.7558533 356.72724,40.08952 C355.32752,38.4231867 353.494553,37.1234467 351.22834,36.1903 C348.962127,35.2571533 346.12936,34.79058 342.73004,34.79058 C335.064907,34.79058 329.466027,37.9232867 325.9334,44.1887 L325.73344,44.1887 L325.73344,35.99034 L317.73504,35.99034 L317.73504,87.68 L326.23334,87.68 Z M395.4195,87.68 L395.4195,80.1815 L391.52028,80.1815 C390.187213,80.1815 389.104097,80.13151 388.27093,80.03153 C387.437763,79.93155 386.787893,79.7149267 386.32132,79.38166 C385.854747,79.0483933 385.538143,78.58182 385.37151,77.98194 C385.204877,77.38206 385.12156,76.58222 385.12156,75.58242 L385.12156,43.48884 L395.4195,43.48884 L395.4195,35.99034 L385.12156,35.99034 L385.12156,20.49344 L376.62326,20.49344 L376.62326,35.99034 L367.82502,35.99034 L367.82502,43.48884 L376.62326,43.48884 L376.62326,76.38226 C376.62326,78.78178 376.856547,80.7147267 377.32312,82.1811 C377.789693,83.6474733 378.506217,84.78058 379.47269,85.58042 C380.439163,86.38026 381.705577,86.93015 383.27193,87.23009 C384.838283,87.53003 386.72124,87.68 388.9208,87.68 L395.4195,87.68 Z" id="path-1"></path>
    </defs>
    <g id="Page-1" stroke="none" stroke-width="1" fill="none" fill-rule="evenodd">
        <g id="trustpilot-med" fill-rule="nonzero">
            <g id="Group" transform="translate(990.000000, 0.000000)">
                <path d="M387.28,50.15 L393.44,50.15 L393.44,39.06 L401.6,39.06 L401.6,50.15 L409,50.15 L409,56.24 L401.6,56.24 L401.6,76 C401.592734,76.7412715 401.626117,77.4823839 401.7,78.22 C401.753858,78.774183 401.9279,79.3099593 402.21,79.79 C402.477293,80.244714 402.889209,80.5967792 403.38,80.79 C404.070883,81.0280034 404.799751,81.1364861 405.53,81.11 C406.11,81.11 406.68,81.11 407.25,81.11 C407.829898,81.0807176 408.405761,80.9970165 408.97,80.86 L408.97,87.15 L406.32,87.44 C405.440112,87.5378069 404.555296,87.5845519 403.67,87.58 C401.920195,87.6295306 400.172348,87.4274674 398.48,86.98 C397.319726,86.657353 396.262317,86.0408182 395.41,85.19 C394.639377,84.3485673 394.116742,83.3102193 393.9,82.19 C393.620219,80.8472485 393.46622,79.4813392 393.44,78.11 L393.44,56.24 L387.28,56.24 L387.28,50.15 Z M366.28,81.72 C367.927023,81.7578171 369.554957,81.3611807 371,80.57 C372.315316,79.8360348 373.444371,78.8096208 374.3,77.57 C375.17411,76.3004563 375.814182,74.8848478 376.19,73.39 C377.003331,70.2789459 377.003331,67.0110541 376.19,63.9 C375.824134,62.4017014 375.183274,60.9843509 374.3,59.72 C373.43986,58.4843326 372.311809,57.4588321 371,56.72 C368.040179,55.1864544 364.519821,55.1864544 361.56,56.72 C360.248191,57.4588321 359.12014,58.4843326 358.260002,59.72 C357.376726,60.9843509 356.735866,62.4017014 356.37,63.9 C355.556669,67.0110541 355.556669,70.2789459 356.37,73.39 C356.745818,74.8848478 357.38589,76.3004563 358.260002,77.57 C359.115629,78.8096208 360.244684,79.8360348 361.56,80.57 C363.005043,81.3611807 364.632977,81.7578171 366.28,81.72 L366.28,81.72 Z M366.28,88.16 C363.57121,88.2080897 360.880654,87.7080749 358.37,86.69 C356.153495,85.7848912 354.153168,84.4218064 352.5,82.69 C350.868264,80.9127856 349.625129,78.8147824 348.85,76.53 C347.993819,73.9956041 347.571225,71.3349544 347.6,68.66 C347.574325,66.0081505 347.996941,63.3710268 348.85,60.86 C349.625129,58.5752176 350.868264,56.4772144 352.5,54.7 C354.151396,52.9661059 356.1522,51.6026964 358.37,50.7 C363.460914,48.7384088 369.099086,48.7384088 374.19,50.7 C376.4078,51.6026964 378.408604,52.9661059 380.06,54.7 C381.691736,56.4772144 382.934871,58.5752176 383.71,60.86 C384.563059,63.3710268 384.985675,66.0081505 384.96,68.66 C384.988775,71.3349544 384.566181,73.9956041 383.71,76.53 C382.934871,78.8147824 381.691736,80.9127856 380.06,82.69 C378.406832,84.4218064 376.406505,85.7848912 374.19,86.69 C371.679036,87.7070146 368.988699,88.2069889 366.28,88.16 L366.28,88.16 Z M333.1,36.05 L341.26,36.05 L341.26,87.16 L333.1,87.16 L333.1,36.05 Z M317.65,50.15 L325.81,50.15 L325.81,87.15 L317.65,87.15 L317.65,50.15 Z M317.65,36.05 L325.81,36.05 L325.81,43.78 L317.65,43.78 L317.65,36.05 Z M303.260078,68.69 C303.264793,67.04539 303.04955,65.40753 302.62,63.82 C302.227486,62.3240107 301.574141,60.908994 300.69,59.64 C299.845987,58.43508 298.746521,57.4312198 297.47,56.7 C296.114509,55.9430948 294.582212,55.5600207 293.03,55.59 C289.59,55.59 287.03,56.79 285.26,59.17 C283.49,61.55 282.65,64.73 282.65,68.69 C282.637416,70.4430085 282.866231,72.1894039 283.33,73.88 C283.714692,75.3701151 284.394814,76.767765 285.33,77.99 C286.20945,79.1195575 287.321169,80.0471274 288.59,80.71 C289.951633,81.4014317 291.463272,81.7449862 292.99,81.71 C294.638371,81.7604692 296.26958,81.3630347 297.71,80.56 C298.981916,79.8079602 300.071367,78.7833977 300.9,77.56 C301.749722,76.3001115 302.356786,74.8926715 302.69,73.41 C303.047614,71.8487371 303.225437,70.2516866 303.22,68.65 L303.260078,68.69 Z M274.78,50.15 L282.51,50.15 L282.51,55.15 L282.65,55.15 C283.685789,53.1170749 285.376921,51.4928835 287.45,50.54 C289.540066,49.6001439 291.808406,49.1225986 294.1,49.14 C296.726186,49.0798023 299.332755,49.6058987 301.73,50.68 C303.831534,51.6511086 305.679769,53.0954703 307.13,54.9 C308.594317,56.7612044 309.687459,58.8863802 310.35,61.16 C311.080642,63.6469886 311.441174,66.2279929 311.42,68.82 C311.412028,71.2639134 311.075685,73.6956733 310.42,76.05 C309.828359,78.27634 308.831735,80.3746739 307.48,82.24 C304.696208,86.0968251 300.173736,88.3130612 295.42,88.15 C294.222942,88.1477187 293.028381,88.0406433 291.85,87.83 C290.669703,87.6256738 289.515896,87.2902647 288.41,86.83 C287.334962,86.3525057 286.326521,85.7373567 285.41,85 C284.488391,84.2711311 283.700061,83.3880663 283.08,82.39 L282.94,82.39 L282.94,100.86 L274.78,100.86 L274.78,50.15 L274.78,50.15 Z M247.37,50.15 L253.52,50.15 L253.52,39.06 L261.68,39.06 L261.68,50.15 L269.05,50.15 L269.05,56.24 L261.68,56.24 L261.68,76 C261.675486,76.7414669 261.71221,77.4826112 261.79,78.22 C261.840473,78.7734747 262.011108,79.3092703 262.29,79.79 C262.563916,80.2429592 262.978248,80.5940872 263.47,80.79 C264.160883,81.0280034 264.889751,81.1364861 265.62,81.11 L267.34,81.11 C267.916599,81.0806833 268.489141,80.9969784 269.05,80.86 L269.05,87.15 L266.41,87.44 C265.530097,87.5376289 264.645292,87.5843733 263.76,87.58 C262.010195,87.6295306 260.262348,87.4274674 258.57,86.98 C257.407203,86.6564217 256.346778,86.0401361 255.49,85.19 C254.722571,84.3476963 254.203385,83.3093257 253.99,82.19 C253.711503,80.8468134 253.554204,79.4813282 253.52,78.11 L253.52,56.24 L247.37,56.24 L247.37,50.15 L247.37,50.15 Z M220.46,75.27 C220.693333,77.6566667 221.6,79.3233333 223.18,80.27 C224.892104,81.2677206 226.849204,81.7665214 228.83,81.71 C229.702825,81.7024499 230.574402,81.6423411 231.44,81.53 C232.384362,81.4171387 233.311295,81.1887637 234.2,80.85 C235.013733,80.5413817 235.738564,80.0364052 236.31,79.38 C236.883047,78.6642542 237.152348,77.7522208 237.06,76.84 C237.042193,75.8617372 236.631306,74.931833 235.92,74.26 C235.114319,73.5477566 234.176562,73.0007318 233.16,72.65 C231.908523,72.2267291 230.628659,71.8925609 229.33,71.65 C227.9,71.37 226.44,71.06 224.97,70.72 C223.479032,70.3974004 222.006831,69.9934633 220.56,69.51 C219.205872,69.0586145 217.928015,68.4045135 216.77,67.57 C215.643447,66.759691 214.725008,65.6938906 214.09,64.46 C213.378131,63.0019727 213.034766,61.3915887 213.09,59.77 C213.036811,57.9895451 213.551658,56.2383648 214.56,54.77 C215.538939,53.409463 216.810015,52.2853124 218.28,51.48 C219.839985,50.6255982 221.528787,50.0311401 223.28,49.72 C225.015085,49.3980219 226.775326,49.2306986 228.54,49.2197024 C230.384107,49.2107872 232.22306,49.4154882 234.02,49.83 C235.697501,50.2176258 237.294691,50.8944011 238.74,51.83 C240.154557,52.7394168 241.352655,53.9477545 242.25,55.37 C243.225664,56.9674766 243.824171,58.7664185 244,60.63 L235.49,60.63 C235.300735,58.9523831 234.293528,57.4771428 232.8,56.69 C231.283588,56.0041171 229.634088,55.6626057 227.97,55.69 C227.300917,55.6995952 226.633029,55.7496869 225.97,55.84 C225.21094,55.9242422 224.465253,56.1022666 223.75,56.37 C223.087451,56.6165437 222.489207,57.0096751 222,57.52 C221.497647,58.0607949 221.237617,58.7830999 221.28,59.52 C221.239349,60.437717 221.60519,61.3267115 222.28,61.95 C223.080814,62.6311626 224.003885,63.1537838 225,63.49 C226.251477,63.9132709 227.531341,64.2474391 228.83,64.49 C230.256667,64.77 231.736667,65.08 233.27,65.42 C234.75,65.75 236.2,66.16 237.63,66.63 C238.997912,67.0735414 240.289624,67.7244564 241.46,68.56 C242.580724,69.3756998 243.509152,70.4270078 244.18,71.64 C244.898533,73.0563795 245.242779,74.6330283 245.18,76.22 C245.241945,78.1904548 244.720083,80.1352595 243.68,81.81 C242.677007,83.3281063 241.343772,84.5998072 239.78,85.53 C238.122712,86.5022896 236.319613,87.201244 234.44,87.6 C232.539304,88.0261256 230.597869,88.244076 228.65,88.25 C226.464756,88.2710193 224.286188,88.0054223 222.17,87.46 C220.314695,86.9994011 218.565939,86.1844469 217.02,85.06 C215.580341,84.0096466 214.403017,82.6406651 213.58,81.06 C212.702839,79.2920288 212.250828,77.343588 212.259863,75.37 L220.46,75.27 Z M206.57,87.16 L198.57,87.16 L198.57,82 L198.42,82 C197.391663,83.8920001 195.839697,85.447438 193.95,86.48 C192.114998,87.5595496 190.028899,88.1388298 187.9,88.16 C183.03,88.16 179.52,86.95 177.34,84.54 C175.16,82.13 174.09,78.54 174.09,73.63 L174.09,50.15 L182.25,50.15 L182.25,72.84 C182.25,76.0933333 182.87,78.3833333 184.11,79.71 C185.479955,81.0985642 187.382941,81.8276776 189.33,81.71 C190.803072,81.7537081 192.26866,81.4844489 193.63,80.92 C194.708649,80.438482 195.662955,79.7167667 196.42,78.81 C197.160169,77.8719115 197.685825,76.7830511 197.96,75.62 C198.276447,74.3105152 198.430936,72.9671338 198.42,71.62 L198.42,50.15 L206.58,50.15 L206.58,87.15 L206.57,87.16 Z M147.44,50.16 L155.1,50.16 L155.1,57.32 L155.24,57.32 C155.508947,56.2605904 155.98474,55.2648233 156.64,54.39 C157.353909,53.4100411 158.194563,52.5290352 159.14,51.77 C160.126973,50.9818869 161.225655,50.3449209 162.4,49.88 C163.558741,49.4064996 164.798249,49.161994 166.05,49.16 C167.05,49.16 167.66,49.16 168.05,49.23 L169.16,49.38 L169.16,57.25 C168.59,57.15 168,57.07 167.41,57 C166.825946,56.929416 166.238297,56.892688 165.65,56.89 C164.306769,56.885724 162.977775,57.1651535 161.75,57.71 C160.518259,58.2709548 159.43068,59.105449 158.57,60.15 C157.598754,61.3299751 156.868308,62.6889457 156.42,64.15 C155.863292,65.9084686 155.596472,67.745817 155.63,69.59 L155.63,87.2 L147.47,87.2 L147.47,50.2 L147.44,50.16 Z M107.86,36.06 L149.23,36.06 L149.23,43.79 L133,43.79 L133,87.17 L124,87.17 L124,43.78 L107.86,43.78 L107.86,36.05 L107.86,36.06 Z" id="Shape" fill="#231F20"></path>
                <polygon fill="#21B685" points="98.34 36.05 60.97 36.05 49.42 0.51 37.88 36.04 0.51 36.04 30.74 58.01 19.2 93.55 49.43 71.59 79.65 93.55 68.11 58.02 98.34 36.05 98.34 36.05 98.34 36.05 98.34 36.05"></polygon>
            </g>
            <polygon fill="#00562F" points="1060.72 66.07 1058.11 58.02 1039.43 71.59 1060.72 66.07"></polygon>
            <g id="Trustpilot_ratings_5star-RGB" transform="translate(438.000000, 4.000000)">
                <rect id="Rectangle-path" fill="#00B67A" x="0.51" y="0.86" width="96" height="96"></rect>
                <rect id="Rectangle-path-2" fill="#00B67A" x="104.51" y="0.86" width="96" height="96"></rect>
                <rect id="Rectangle-path-3" fill="#00B67A" x="208.51" y="0.86" width="96" height="96"></rect>
                <rect id="Rectangle-path-4" fill="#00B67A" x="312.51" y="0.86" width="96" height="96"></rect>
                <rect id="Rectangle-path-5" fill="#00B67A" x="416.51" y="0.86" width="96" height="96"></rect>
                <path d="M48.51,65.56 L63.11,61.86 L69.21,80.66 L48.51,65.56 Z M82.11,41.26 L56.41,41.26 L48.51,17.06 L40.61,41.26 L14.91,41.26 L35.71,56.26 L27.81,80.46 L48.61,65.46 L61.41,56.26 L82.11,41.26 L82.11,41.26 Z" id="Shape" fill="#FFFFFF"></path>
                <path d="M152.51,65.56 L167.11,61.86 L173.21,80.66 L152.51,65.56 Z M186.11,41.26 L160.41,41.26 L152.51,17.06 L144.61,41.26 L118.91,41.26 L139.71,56.26 L131.81,80.46 L152.61,65.46 L165.41,56.26 L186.11,41.26 L186.11,41.26 Z" id="Shape-2" fill="#FFFFFF"></path>
                <path d="M256.51,65.56 L271.11,61.86 L277.21,80.66 L256.51,65.56 Z M290.11,41.26 L264.41,41.26 L256.51,17.06 L248.61,41.26 L222.91,41.26 L243.71,56.26 L235.81,80.46 L256.61,65.46 L269.41,56.26 L290.11,41.26 L290.11,41.26 Z" id="Shape-3" fill="#FFFFFF"></path>
                <path d="M360.51,65.56 L375.11,61.86 L381.21,80.66 L360.51,65.56 Z M394.11,41.26 L368.41,41.26 L360.51,17.06 L352.61,41.26 L326.91,41.26 L347.71,56.26 L339.81,80.46 L360.61,65.46 L373.41,56.26 L394.11,41.26 L394.11,41.26 Z" id="Shape-4" fill="#FFFFFF"></path>
                <path d="M464.51,65.56 L479.11,61.86 L485.21,80.66 L464.51,65.56 Z M498.11,41.26 L472.41,41.26 L464.51,17.06 L456.61,41.26 L430.91,41.26 L451.71,56.26 L443.81,80.46 L464.61,65.46 L477.41,56.26 L498.11,41.26 L498.11,41.26 Z" id="Shape-5" fill="#FFFFFF"></path>
            </g>
            <g id="Excellent" fill="#000000">
                <use xlink:href="#path-1"></use>
                <use xlink:href="#path-1"></use>
            </g>
        </g>
    </g>
</svg>