<svg width="951px" height="207px" viewBox="0 0 951 207" version="1.1" xmlns="http://www.w3.org/2000/svg" xmlns:xlink="http://www.w3.org/1999/xlink">
    <defs>
        <path d="M10.80692,70 L10.80692,52.9754 C10.80692,50.5080667 11.0536533,48.3244767 11.54712,46.42463 C12.0405867,44.5247833 12.8301333,42.90868 13.91576,41.57632 C15.0013867,40.24396 16.43244,39.2323533 18.20892,38.5415 C19.9854,37.8506467 22.13198,37.50522 24.64866,37.50522 L24.64866,30.84342 C21.24374,30.7447267 18.43098,31.43558 16.21038,32.91598 C13.98978,34.39638 12.1146067,36.691 10.58486,39.79984 L10.43682,39.79984 L10.43682,31.73166 L4.51522,31.73166 L4.51522,70 L10.80692,70 Z" id="path-1"></path>
        <path d="M44.34168,70.81422 C48.6841867,70.81422 52.2864933,69.7285933 55.1486,67.55734 C58.0107067,65.3860867 59.8612067,62.15388 60.7001,57.86072 L54.48242,57.86072 C53.9396067,60.3774 52.81697,62.2525733 51.11451,63.48624 C49.41205,64.7199067 47.22846,65.33674 44.56374,65.33674 C42.49118,65.33674 40.6900267,64.9913133 39.16028,64.30046 C37.6305333,63.6096067 36.3721933,62.6843567 35.38526,61.52471 C34.3983267,60.3650633 33.6828,59.0327033 33.23868,57.52763 C32.79456,56.0225567 32.5971733,54.4311267 32.64652,52.75334 L61.29226,52.75334 C61.3909533,50.4340467 61.18123,47.9913867 60.66309,45.42536 C60.14495,42.8593333 59.2073633,40.4906933 57.85033,38.31944 C56.4932967,36.1481867 54.6921433,34.35937 52.44687,32.95299 C50.2015967,31.54661 47.3765,30.84342 43.97158,30.84342 C41.3562067,30.84342 38.9505567,31.3368867 36.75463,32.32382 C34.5587033,33.3107533 32.6588567,34.69246 31.05509,36.46894 C29.4513233,38.24542 28.20532,40.3426533 27.31708,42.76064 C26.42884,45.1786267 25.98472,47.8433467 25.98472,50.7548 C26.0834133,53.6662533 26.5151967,56.3556467 27.28007,58.82298 C28.0449433,61.2903133 29.1922533,63.41222 30.722,65.1887 C32.2517467,66.96518 34.1392567,68.3468867 36.38453,69.33382 C38.6298033,70.3207533 41.2821867,70.81422 44.34168,70.81422 Z M54.63046,47.20184 L32.64652,47.20184 C32.7452133,45.72144 33.0659667,44.3273967 33.60878,43.01971 C34.1515933,41.7120233 34.8917933,40.5647133 35.82938,39.57778 C36.7669667,38.5908467 37.8896033,37.8136367 39.19729,37.24615 C40.5049767,36.6786633 41.97304,36.39492 43.60148,36.39492 C45.1805733,36.39492 46.6239633,36.6786633 47.93165,37.24615 C49.2393367,37.8136367 50.37431,38.57851 51.33657,39.54077 C52.29883,40.50303 53.0637033,41.65034 53.63119,42.9827 C54.1986767,44.31506 54.5317667,45.72144 54.63046,47.20184 Z M85.05268,70 L99.04246,31.73166 L92.45468,31.73166 L82.01786,63.63428 L81.86982,63.63428 L71.13692,31.73166 L64.10502,31.73166 L78.31686,70 L85.05268,70 Z M111.47782,24.8478 L111.47782,17.14972 L105.18612,17.14972 L105.18612,24.8478 L111.47782,24.8478 Z M111.47782,70 L111.47782,31.73166 L105.18612,31.73166 L105.18612,70 L111.47782,70 Z M137.53286,70.81422 C141.875367,70.81422 145.477673,69.7285933 148.33978,67.55734 C151.201887,65.3860867 153.052387,62.15388 153.89128,57.86072 L147.6736,57.86072 C147.130787,60.3774 146.00815,62.2525733 144.30569,63.48624 C142.60323,64.7199067 140.41964,65.33674 137.75492,65.33674 C135.68236,65.33674 133.881207,64.9913133 132.35146,64.30046 C130.821713,63.6096067 129.563373,62.6843567 128.57644,61.52471 C127.589507,60.3650633 126.87398,59.0327033 126.42986,57.52763 C125.98574,56.0225567 125.788353,54.4311267 125.8377,52.75334 L154.48344,52.75334 C154.582133,50.4340467 154.37241,47.9913867 153.85427,45.42536 C153.33613,42.8593333 152.398543,40.4906933 151.04151,38.31944 C149.684477,36.1481867 147.883323,34.35937 145.63805,32.95299 C143.392777,31.54661 140.56768,30.84342 137.16276,30.84342 C134.547387,30.84342 132.141737,31.3368867 129.94581,32.32382 C127.749883,33.3107533 125.850037,34.69246 124.24627,36.46894 C122.642503,38.24542 121.3965,40.3426533 120.50826,42.76064 C119.62002,45.1786267 119.1759,47.8433467 119.1759,50.7548 C119.274593,53.6662533 119.706377,56.3556467 120.47125,58.82298 C121.236123,61.2903133 122.383433,63.41222 123.91318,65.1887 C125.442927,66.96518 127.330437,68.3468867 129.57571,69.33382 C131.820983,70.3207533 134.473367,70.81422 137.53286,70.81422 Z M147.82164,47.20184 L125.8377,47.20184 C125.936393,45.72144 126.257147,44.3273967 126.79996,43.01971 C127.342773,41.7120233 128.082973,40.5647133 129.02056,39.57778 C129.958147,38.5908467 131.080783,37.8136367 132.38847,37.24615 C133.696157,36.6786633 135.16422,36.39492 136.79266,36.39492 C138.371753,36.39492 139.815143,36.6786633 141.12283,37.24615 C142.430517,37.8136367 143.56549,38.57851 144.52775,39.54077 C145.49001,40.50303 146.254883,41.65034 146.82237,42.9827 C147.389857,44.31506 147.722947,45.72144 147.82164,47.20184 Z M176.61542,70 L184.3135,39.57778 L184.46154,39.57778 L192.23364,70 L198.89544,70 L211.10874,31.73166 L204.59498,31.73166 L196.00866,63.04212 L195.86062,63.04212 L187.86646,31.73166 L180.9826,31.73166 L173.28452,63.04212 L173.13648,63.04212 L164.47614,31.73166 L157.51826,31.73166 L169.80558,70 L176.61542,70 Z M230.87208,70.81422 C232.7966,70.81422 234.733457,70.62917 236.68265,70.25907 C238.631843,69.88897 240.38365,69.2351267 241.93807,68.29754 C243.49249,67.3599533 244.75083,66.1262867 245.71309,64.59654 C246.67535,63.0667933 247.15648,61.1422733 247.15648,58.82298 C247.15648,56.9971533 246.798717,55.4674067 246.08319,54.23374 C245.367663,53.0000733 244.430077,51.97613 243.27043,51.16191 C242.110783,50.34769 240.778423,49.6938467 239.27335,49.20038 C237.768277,48.7069133 236.226193,48.2874667 234.6471,47.94204 C233.1667,47.5966133 231.6863,47.2635233 230.2059,46.94277 C228.7255,46.6220167 227.39314,46.2272433 226.20882,45.75845 C225.0245,45.2896567 224.049903,44.6974967 223.28503,43.98197 C222.520157,43.2664433 222.13772,42.3658667 222.13772,41.28024 C222.13772,40.2933067 222.384453,39.4914233 222.87792,38.87459 C223.371387,38.2577567 224.012893,37.76429 224.80244,37.39419 C225.591987,37.02409 226.46789,36.76502 227.43015,36.61698 C228.39241,36.46894 229.342333,36.39492 230.27992,36.39492 C231.3162,36.39492 232.340143,36.50595 233.35175,36.72801 C234.363357,36.95007 235.288607,37.3078333 236.1275,37.8013 C236.966393,38.2947667 237.657247,38.94861 238.20006,39.76283 C238.742873,40.57705 239.063627,41.6009933 239.16232,42.83466 L245.45402,42.83466 C245.30598,40.5153667 244.812513,38.57851 243.97362,37.02409 C243.134727,35.46967 242.01209,34.2360033 240.60571,33.32309 C239.19933,32.4101767 237.583227,31.76867 235.7574,31.39857 C233.931573,31.02847 231.933033,30.84342 229.76178,30.84342 C228.083993,30.84342 226.39387,31.0531433 224.69141,31.47259 C222.98895,31.8920367 221.459203,32.5335433 220.10217,33.39711 C218.745137,34.2606767 217.634837,35.3833133 216.77127,36.76502 C215.907703,38.1467267 215.47592,39.79984 215.47592,41.72436 C215.47592,44.1916933 216.092753,46.1162133 217.32642,47.49792 C218.560087,48.8796267 220.10217,49.9529167 221.95267,50.71779 C223.80317,51.4826633 225.814047,52.0748233 227.9853,52.49427 C230.156553,52.9137167 232.16743,53.38251 234.01793,53.90065 C235.86843,54.41879 237.410513,55.0973067 238.64418,55.9362 C239.877847,56.7750933 240.49468,58.00876 240.49468,59.6372 C240.49468,60.82152 240.1986,61.7961167 239.60644,62.56099 C239.01428,63.3258633 238.261743,63.9056867 237.34883,64.30046 C236.435917,64.6952333 235.436647,64.96664 234.35102,65.11468 C233.265393,65.26272 232.229113,65.33674 231.24218,65.33674 C229.959167,65.33674 228.713163,65.2133733 227.50417,64.96664 C226.295177,64.7199067 225.20955,64.3127967 224.24729,63.74531 C223.28503,63.1778233 222.50782,62.41295 221.91566,61.45069 C221.3235,60.48843 221.002747,59.3164467 220.9534,57.93474 L214.6617,57.93474 C214.760393,60.30338 215.25386,62.3142567 216.1421,63.96737 C217.03034,65.6204833 218.21466,66.9528433 219.69506,67.96445 C221.17546,68.9760567 222.87792,69.70392 224.80244,70.14804 C226.72696,70.59216 228.750173,70.81422 230.87208,70.81422 Z M291.19838,70.81422 C294.257873,70.81422 296.93493,70.3084167 299.22955,69.29681 C301.52417,68.2852033 303.461027,66.8788233 305.04012,65.07767 C306.619213,63.2765167 307.803533,61.1669467 308.59308,58.74896 C309.382627,56.3309733 309.7774,53.7156 309.7774,50.90284 C309.7774,48.09008 309.382627,45.46237 308.59308,43.01971 C307.803533,40.57705 306.619213,38.4551433 305.04012,36.65399 C303.461027,34.8528367 301.52417,33.43412 299.22955,32.39784 C296.93493,31.36156 294.257873,30.84342 291.19838,30.84342 C288.188233,30.84342 285.523513,31.36156 283.20422,32.39784 C280.884927,33.43412 278.935733,34.8528367 277.35664,36.65399 C275.777547,38.4551433 274.593227,40.57705 273.80368,43.01971 C273.014133,45.46237 272.61936,48.09008 272.61936,50.90284 C272.61936,53.7156 273.014133,56.3309733 273.80368,58.74896 C274.593227,61.1669467 275.777547,63.2765167 277.35664,65.07767 C278.935733,66.8788233 280.884927,68.2852033 283.20422,69.29681 C285.523513,70.3084167 288.188233,70.81422 291.19838,70.81422 Z M291.19838,65.33674 C289.56994,65.33674 288.027857,65.0159867 286.57213,64.37448 C285.116403,63.7329733 283.845727,62.8077233 282.7601,61.59873 C281.674473,60.3897367 280.823243,58.8846633 280.20641,57.08351 C279.589577,55.2823567 279.28116,53.2221333 279.28116,50.90284 C279.28116,48.5835467 279.589577,46.5233233 280.20641,44.72217 C280.823243,42.9210167 281.674473,41.4036067 282.7601,40.16994 C283.845727,38.9362733 285.116403,37.9986867 286.57213,37.35718 C288.027857,36.7156733 289.56994,36.39492 291.19838,36.39492 C292.82682,36.39492 294.368903,36.7156733 295.82463,37.35718 C297.280357,37.9986867 298.551033,38.9362733 299.63666,40.16994 C300.722287,41.4036067 301.573517,42.9210167 302.19035,44.72217 C302.807183,46.5233233 303.1156,48.5835467 303.1156,50.90284 C303.1156,53.2221333 302.807183,55.2823567 302.19035,57.08351 C301.573517,58.8846633 300.722287,60.3897367 299.63666,61.59873 C298.551033,62.8077233 297.280357,63.7329733 295.82463,64.37448 C294.368903,65.0159867 292.82682,65.33674 291.19838,65.33674 Z M323.4711,70 L323.4711,48.38616 C323.4711,46.6590267 323.705497,45.0675967 324.17429,43.61187 C324.643083,42.1561433 325.346273,40.8854667 326.28386,39.79984 C327.221447,38.7142133 328.39343,37.87532 329.79981,37.28316 C331.20619,36.691 332.87164,36.39492 334.79616,36.39492 C337.214147,36.39492 339.113993,37.0857733 340.4957,38.46748 C341.877407,39.8491867 342.56826,41.72436 342.56826,44.093 L342.56826,70 L348.85996,70 L348.85996,44.8332 C348.85996,42.76064 348.650237,40.87313 348.23079,39.17067 C347.811343,37.46821 347.08348,36.0001467 346.0472,34.76648 C345.01092,33.5328133 343.653887,32.5705533 341.9761,31.8797 C340.298313,31.1888467 338.20108,30.84342 335.6844,30.84342 C330.009533,30.84342 325.864413,33.1627133 323.24904,37.8013 L323.101,37.8013 L323.101,31.73166 L317.1794,31.73166 L317.1794,70 L323.4711,70 Z" id="path-2"></path>
        <path d="M50.38852,83.68 L50.38852,75.6816 L10.29654,75.6816 L10.29654,50.98654 L47.38912,50.98654 L47.38912,42.98814 L10.29654,42.98814 L10.29654,20.29268 L50.08858,20.29268 L50.08858,12.29428 L0.79844,12.29428 L0.79844,83.68 L50.38852,83.68 Z M65.28554,83.68 L79.68266,62.28428 L94.07978,83.68 L104.9776,83.68 L84.9816,55.78558 L102.77804,31.99034 L92.58008,31.99034 L79.68266,50.08672 L67.28514,31.99034 L56.38732,31.99034 L74.38372,56.48544 L54.9876,83.68 L65.28554,83.68 Z M133.67186,84.77978 C140.27054,84.77978 145.486163,83.0467933 149.31873,79.58082 C153.151297,76.1148467 155.534153,71.1825 156.4673,64.78378 L147.76904,64.78378 C147.235813,68.78298 145.786103,71.88236 143.41991,74.08192 C141.053717,76.28148 137.77104,77.38126 133.57188,77.38126 C130.905747,77.38126 128.606207,76.8480333 126.67326,75.78158 C124.740313,74.7151267 123.17396,73.2987433 121.9742,71.53243 C120.77444,69.7661167 119.891283,67.7498533 119.32473,65.48364 C118.758177,63.2174267 118.4749,60.88456 118.4749,58.48504 C118.4749,55.88556 118.741513,53.3693967 119.27474,50.93655 C119.807967,48.5037033 120.691123,46.3541333 121.92421,44.48784 C123.157297,42.6215467 124.806967,41.1218467 126.87322,39.98874 C128.939473,38.8556333 131.505627,38.28908 134.57168,38.28908 C138.17096,38.28908 141.037053,39.1889 143.16996,40.98854 C145.302867,42.78818 146.702587,45.3210067 147.36912,48.58702 L156.16736,48.58702 C155.834093,45.5209667 155.034253,42.8714967 153.76784,40.63861 C152.501427,38.4057233 150.885083,36.5560933 148.91881,35.08972 C146.952537,33.6233467 144.686323,32.54023 142.12017,31.84037 C139.554017,31.14051 136.804567,30.79058 133.87182,30.79058 C129.805967,30.79058 126.240013,31.5071033 123.17396,32.94015 C120.107907,34.3731967 117.558417,36.33947 115.52549,38.83897 C113.492563,41.33847 111.9762,44.2712167 110.9764,47.63721 C109.9766,51.0032033 109.4767,54.6191467 109.4767,58.48504 C109.4767,62.3509333 109.993263,65.9002233 111.02639,69.13291 C112.059517,72.3655967 113.592543,75.1483733 115.62547,77.48124 C117.658397,79.8141067 120.191223,81.6137467 123.22395,82.88016 C126.256677,84.1465733 129.739313,84.77978 133.67186,84.77978 Z M187.961,84.77978 C193.826493,84.77978 198.692187,83.3134067 202.55808,80.38066 C206.423973,77.4479133 208.923473,73.08212 210.05658,67.28328 L201.65826,67.28328 C200.925073,70.6826 199.40871,73.2154267 197.10917,74.88176 C194.80963,76.5480933 191.86022,77.38126 188.26094,77.38126 C185.4615,77.38126 183.028653,76.9146867 180.9624,75.98154 C178.896147,75.0483933 177.196487,73.7986433 175.86342,72.23229 C174.530353,70.6659367 173.56388,68.8662967 172.964,66.83337 C172.36412,64.8004433 172.097507,62.6508733 172.16416,60.38466 L210.85642,60.38466 C210.989727,57.2519533 210.70645,53.9526133 210.00659,50.48664 C209.30673,47.0206667 208.040317,43.8213067 206.20735,40.88856 C204.374383,37.9558133 201.941537,35.53963 198.90881,33.64001 C195.876083,31.74039 192.06018,30.79058 187.4611,30.79058 C183.928473,30.79058 180.679123,31.4571133 177.71305,32.79018 C174.746977,34.1232467 172.180823,35.98954 170.01459,38.38906 C167.848357,40.78858 166.16536,43.6213467 164.9656,46.88736 C163.76584,50.1533733 163.16596,53.7526533 163.16596,57.6852 C163.299267,61.6177467 163.882483,65.2503533 164.91561,68.58302 C165.948737,71.9156867 167.498427,74.78178 169.56468,77.1813 C171.630933,79.58082 174.180423,81.4471133 177.21315,82.78018 C180.245877,84.1132467 183.828493,84.77978 187.961,84.77978 Z M201.85822,52.88616 L172.16416,52.88616 C172.297467,50.88656 172.730713,49.0036033 173.4639,47.23729 C174.197087,45.4709767 175.196887,43.9212867 176.4633,42.58822 C177.729713,41.2551533 179.246077,40.2053633 181.01239,39.43885 C182.778703,38.6723367 184.76164,38.28908 186.9612,38.28908 C189.094107,38.28908 191.043717,38.6723367 192.81003,39.43885 C194.576343,40.2053633 196.10937,41.23849 197.40911,42.53823 C198.70885,43.83797 199.741977,45.38766 200.50849,47.1873 C201.275003,48.98694 201.724913,50.88656 201.85822,52.88616 Z M228.65286,83.68 L228.65286,12.29428 L220.15456,12.29428 L220.15456,83.68 L228.65286,83.68 Z M250.84842,83.68 L250.84842,12.29428 L242.35012,12.29428 L242.35012,83.68 L250.84842,83.68 Z M286.04138,84.77978 C291.906873,84.77978 296.772567,83.3134067 300.63846,80.38066 C304.504353,77.4479133 307.003853,73.08212 308.13696,67.28328 L299.73864,67.28328 C299.005453,70.6826 297.48909,73.2154267 295.18955,74.88176 C292.89001,76.5480933 289.9406,77.38126 286.34132,77.38126 C283.54188,77.38126 281.109033,76.9146867 279.04278,75.98154 C276.976527,75.0483933 275.276867,73.7986433 273.9438,72.23229 C272.610733,70.6659367 271.64426,68.8662967 271.04438,66.83337 C270.4445,64.8004433 270.177887,62.6508733 270.24454,60.38466 L308.9368,60.38466 C309.070107,57.2519533 308.78683,53.9526133 308.08697,50.48664 C307.38711,47.0206667 306.120697,43.8213067 304.28773,40.88856 C302.454763,37.9558133 300.021917,35.53963 296.98919,33.64001 C293.956463,31.74039 290.14056,30.79058 285.54148,30.79058 C282.008853,30.79058 278.759503,31.4571133 275.79343,32.79018 C272.827357,34.1232467 270.261203,35.98954 268.09497,38.38906 C265.928737,40.78858 264.24574,43.6213467 263.04598,46.88736 C261.84622,50.1533733 261.24634,53.7526533 261.24634,57.6852 C261.379647,61.6177467 261.962863,65.2503533 262.99599,68.58302 C264.029117,71.9156867 265.578807,74.78178 267.64506,77.1813 C269.711313,79.58082 272.260803,81.4471133 275.29353,82.78018 C278.326257,84.1132467 281.908873,84.77978 286.04138,84.77978 Z M299.9386,52.88616 L270.24454,52.88616 C270.377847,50.88656 270.811093,49.0036033 271.54428,47.23729 C272.277467,45.4709767 273.277267,43.9212867 274.54368,42.58822 C275.810093,41.2551533 277.326457,40.2053633 279.09277,39.43885 C280.859083,38.6723367 282.84202,38.28908 285.04158,38.28908 C287.174487,38.28908 289.124097,38.6723367 290.89041,39.43885 C292.656723,40.2053633 294.18975,41.23849 295.48949,42.53823 C296.78923,43.83797 297.822357,45.38766 298.58887,47.1873 C299.355383,48.98694 299.805293,50.88656 299.9386,52.88616 Z M326.23334,83.68 L326.23334,54.48584 C326.23334,52.1529733 326.549943,50.0034033 327.18315,48.03713 C327.816357,46.0708567 328.766167,44.3545333 330.03258,42.88816 C331.298993,41.4217867 332.88201,40.28868 334.78163,39.48884 C336.68125,38.689 338.9308,38.28908 341.53028,38.28908 C344.796293,38.28908 347.362447,39.2222267 349.22874,41.08852 C351.095033,42.9548133 352.02818,45.48764 352.02818,48.687 L352.02818,83.68 L360.52648,83.68 L360.52648,49.6868 C360.52648,46.88736 360.243203,44.33787 359.67665,42.03833 C359.110097,39.73879 358.12696,37.7558533 356.72724,36.08952 C355.32752,34.4231867 353.494553,33.1234467 351.22834,32.1903 C348.962127,31.2571533 346.12936,30.79058 342.73004,30.79058 C335.064907,30.79058 329.466027,33.9232867 325.9334,40.1887 L325.73344,40.1887 L325.73344,31.99034 L317.73504,31.99034 L317.73504,83.68 L326.23334,83.68 Z M395.4195,83.68 L395.4195,76.1815 L391.52028,76.1815 C390.187213,76.1815 389.104097,76.13151 388.27093,76.03153 C387.437763,75.93155 386.787893,75.7149267 386.32132,75.38166 C385.854747,75.0483933 385.538143,74.58182 385.37151,73.98194 C385.204877,73.38206 385.12156,72.58222 385.12156,71.58242 L385.12156,39.48884 L395.4195,39.48884 L395.4195,31.99034 L385.12156,31.99034 L385.12156,16.49344 L376.62326,16.49344 L376.62326,31.99034 L367.82502,31.99034 L367.82502,39.48884 L376.62326,39.48884 L376.62326,72.38226 C376.62326,74.78178 376.856547,76.7147267 377.32312,78.1811 C377.789693,79.6474733 378.506217,80.78058 379.47269,81.58042 C380.439163,82.38026 381.705577,82.93015 383.27193,83.23009 C384.838283,83.53003 386.72124,83.68 388.9208,83.68 L395.4195,83.68 Z" id="path-3"></path>
    </defs>
    <g id="Page-1" stroke="none" stroke-width="1" fill="none" fill-rule="evenodd">
        <g id="trustpilot-med" fill-rule="nonzero">
            <g id="Group" transform="translate(542.000000, 104.000000)">
                <path d="M387.28,50.15 L393.44,50.15 L393.44,39.06 L401.6,39.06 L401.6,50.15 L409,50.15 L409,56.24 L401.6,56.24 L401.6,76 C401.592734,76.7412715 401.626117,77.4823839 401.7,78.22 C401.753858,78.774183 401.9279,79.3099593 402.21,79.79 C402.477293,80.244714 402.889209,80.5967792 403.38,80.79 C404.070883,81.0280034 404.799751,81.1364861 405.53,81.11 C406.11,81.11 406.68,81.11 407.25,81.11 C407.829898,81.0807176 408.405761,80.9970165 408.97,80.86 L408.97,87.15 L406.32,87.44 C405.440112,87.5378069 404.555296,87.5845519 403.67,87.58 C401.920195,87.6295306 400.172348,87.4274674 398.48,86.98 C397.319726,86.657353 396.262317,86.0408182 395.41,85.19 C394.639377,84.3485673 394.116742,83.3102193 393.9,82.19 C393.620219,80.8472485 393.46622,79.4813392 393.44,78.11 L393.44,56.24 L387.28,56.24 L387.28,50.15 Z M366.28,81.72 C367.927023,81.7578171 369.554957,81.3611807 371,80.57 C372.315316,79.8360348 373.444371,78.8096208 374.3,77.57 C375.17411,76.3004563 375.814182,74.8848478 376.19,73.39 C377.003331,70.2789459 377.003331,67.0110541 376.19,63.9 C375.824134,62.4017014 375.183274,60.9843509 374.3,59.72 C373.43986,58.4843326 372.311809,57.4588321 371,56.72 C368.040179,55.1864544 364.519821,55.1864544 361.56,56.72 C360.248191,57.4588321 359.12014,58.4843326 358.260002,59.72 C357.376726,60.9843509 356.735866,62.4017014 356.37,63.9 C355.556669,67.0110541 355.556669,70.2789459 356.37,73.39 C356.745818,74.8848478 357.38589,76.3004563 358.260002,77.57 C359.115629,78.8096208 360.244684,79.8360348 361.56,80.57 C363.005043,81.3611807 364.632977,81.7578171 366.28,81.72 L366.28,81.72 Z M366.28,88.16 C363.57121,88.2080897 360.880654,87.7080749 358.37,86.69 C356.153495,85.7848912 354.153168,84.4218064 352.5,82.69 C350.868264,80.9127856 349.625129,78.8147824 348.85,76.53 C347.993819,73.9956041 347.571225,71.3349544 347.6,68.66 C347.574325,66.0081505 347.996941,63.3710268 348.85,60.86 C349.625129,58.5752176 350.868264,56.4772144 352.5,54.7 C354.151396,52.9661059 356.1522,51.6026964 358.37,50.7 C363.460914,48.7384088 369.099086,48.7384088 374.19,50.7 C376.4078,51.6026964 378.408604,52.9661059 380.06,54.7 C381.691736,56.4772144 382.934871,58.5752176 383.71,60.86 C384.563059,63.3710268 384.985675,66.0081505 384.96,68.66 C384.988775,71.3349544 384.566181,73.9956041 383.71,76.53 C382.934871,78.8147824 381.691736,80.9127856 380.06,82.69 C378.406832,84.4218064 376.406505,85.7848912 374.19,86.69 C371.679036,87.7070146 368.988699,88.2069889 366.28,88.16 L366.28,88.16 Z M333.1,36.05 L341.26,36.05 L341.26,87.16 L333.1,87.16 L333.1,36.05 Z M317.65,50.15 L325.81,50.15 L325.81,87.15 L317.65,87.15 L317.65,50.15 Z M317.65,36.05 L325.81,36.05 L325.81,43.78 L317.65,43.78 L317.65,36.05 Z M303.260078,68.69 C303.264793,67.04539 303.04955,65.40753 302.62,63.82 C302.227486,62.3240107 301.574141,60.908994 300.69,59.64 C299.845987,58.43508 298.746521,57.4312198 297.47,56.7 C296.114509,55.9430948 294.582212,55.5600207 293.03,55.59 C289.59,55.59 287.03,56.79 285.26,59.17 C283.49,61.55 282.65,64.73 282.65,68.69 C282.637416,70.4430085 282.866231,72.1894039 283.33,73.88 C283.714692,75.3701151 284.394814,76.767765 285.33,77.99 C286.20945,79.1195575 287.321169,80.0471274 288.59,80.71 C289.951633,81.4014317 291.463272,81.7449862 292.99,81.71 C294.638371,81.7604692 296.26958,81.3630347 297.71,80.56 C298.981916,79.8079602 300.071367,78.7833977 300.9,77.56 C301.749722,76.3001115 302.356786,74.8926715 302.69,73.41 C303.047614,71.8487371 303.225437,70.2516866 303.22,68.65 L303.260078,68.69 Z M274.78,50.15 L282.51,50.15 L282.51,55.15 L282.65,55.15 C283.685789,53.1170749 285.376921,51.4928835 287.45,50.54 C289.540066,49.6001439 291.808406,49.1225986 294.1,49.14 C296.726186,49.0798023 299.332755,49.6058987 301.73,50.68 C303.831534,51.6511086 305.679769,53.0954703 307.13,54.9 C308.594317,56.7612044 309.687459,58.8863802 310.35,61.16 C311.080642,63.6469886 311.441174,66.2279929 311.42,68.82 C311.412028,71.2639134 311.075685,73.6956733 310.42,76.05 C309.828359,78.27634 308.831735,80.3746739 307.48,82.24 C304.696208,86.0968251 300.173736,88.3130612 295.42,88.15 C294.222942,88.1477187 293.028381,88.0406433 291.85,87.83 C290.669703,87.6256738 289.515896,87.2902647 288.41,86.83 C287.334962,86.3525057 286.326521,85.7373567 285.41,85 C284.488391,84.2711311 283.700061,83.3880663 283.08,82.39 L282.94,82.39 L282.94,100.86 L274.78,100.86 L274.78,50.15 L274.78,50.15 Z M247.37,50.15 L253.52,50.15 L253.52,39.06 L261.68,39.06 L261.68,50.15 L269.05,50.15 L269.05,56.24 L261.68,56.24 L261.68,76 C261.675486,76.7414669 261.71221,77.4826112 261.79,78.22 C261.840473,78.7734747 262.011108,79.3092703 262.29,79.79 C262.563916,80.2429592 262.978248,80.5940872 263.47,80.79 C264.160883,81.0280034 264.889751,81.1364861 265.62,81.11 L267.34,81.11 C267.916599,81.0806833 268.489141,80.9969784 269.05,80.86 L269.05,87.15 L266.41,87.44 C265.530097,87.5376289 264.645292,87.5843733 263.76,87.58 C262.010195,87.6295306 260.262348,87.4274674 258.57,86.98 C257.407203,86.6564217 256.346778,86.0401361 255.49,85.19 C254.722571,84.3476963 254.203385,83.3093257 253.99,82.19 C253.711503,80.8468134 253.554204,79.4813282 253.52,78.11 L253.52,56.24 L247.37,56.24 L247.37,50.15 L247.37,50.15 Z M220.46,75.27 C220.693333,77.6566667 221.6,79.3233333 223.18,80.27 C224.892104,81.2677206 226.849204,81.7665214 228.83,81.71 C229.702825,81.7024499 230.574402,81.6423411 231.44,81.53 C232.384362,81.4171387 233.311295,81.1887637 234.2,80.85 C235.013733,80.5413817 235.738564,80.0364052 236.31,79.38 C236.883047,78.6642542 237.152348,77.7522208 237.06,76.84 C237.042193,75.8617372 236.631306,74.931833 235.92,74.26 C235.114319,73.5477566 234.176562,73.0007318 233.16,72.65 C231.908523,72.2267291 230.628659,71.8925609 229.33,71.65 C227.9,71.37 226.44,71.06 224.97,70.72 C223.479032,70.3974004 222.006831,69.9934633 220.56,69.51 C219.205872,69.0586145 217.928015,68.4045135 216.77,67.57 C215.643447,66.759691 214.725008,65.6938906 214.09,64.46 C213.378131,63.0019727 213.034766,61.3915887 213.09,59.77 C213.036811,57.9895451 213.551658,56.2383648 214.56,54.77 C215.538939,53.409463 216.810015,52.2853124 218.28,51.48 C219.839985,50.6255982 221.528787,50.0311401 223.28,49.72 C225.015085,49.3980219 226.775326,49.2306986 228.54,49.2197024 C230.384107,49.2107872 232.22306,49.4154882 234.02,49.83 C235.697501,50.2176258 237.294691,50.8944011 238.74,51.83 C240.154557,52.7394168 241.352655,53.9477545 242.25,55.37 C243.225664,56.9674766 243.824171,58.7664185 244,60.63 L235.49,60.63 C235.300735,58.9523831 234.293528,57.4771428 232.8,56.69 C231.283588,56.0041171 229.634088,55.6626057 227.97,55.69 C227.300917,55.6995952 226.633029,55.7496869 225.97,55.84 C225.21094,55.9242422 224.465253,56.1022666 223.75,56.37 C223.087451,56.6165437 222.489207,57.0096751 222,57.52 C221.497647,58.0607949 221.237617,58.7830999 221.28,59.52 C221.239349,60.437717 221.60519,61.3267115 222.28,61.95 C223.080814,62.6311626 224.003885,63.1537838 225,63.49 C226.251477,63.9132709 227.531341,64.2474391 228.83,64.49 C230.256667,64.77 231.736667,65.08 233.27,65.42 C234.75,65.75 236.2,66.16 237.63,66.63 C238.997912,67.0735414 240.289624,67.7244564 241.46,68.56 C242.580724,69.3756998 243.509152,70.4270078 244.18,71.64 C244.898533,73.0563795 245.242779,74.6330283 245.18,76.22 C245.241945,78.1904548 244.720083,80.1352595 243.68,81.81 C242.677007,83.3281063 241.343772,84.5998072 239.78,85.53 C238.122712,86.5022896 236.319613,87.201244 234.44,87.6 C232.539304,88.0261256 230.597869,88.244076 228.65,88.25 C226.464756,88.2710193 224.286188,88.0054223 222.17,87.46 C220.314695,86.9994011 218.565939,86.1844469 217.02,85.06 C215.580341,84.0096466 214.403017,82.6406651 213.58,81.06 C212.702839,79.2920288 212.250828,77.343588 212.259863,75.37 L220.46,75.27 Z M206.57,87.16 L198.57,87.16 L198.57,82 L198.42,82 C197.391663,83.8920001 195.839697,85.447438 193.95,86.48 C192.114998,87.5595496 190.028899,88.1388298 187.9,88.16 C183.03,88.16 179.52,86.95 177.34,84.54 C175.16,82.13 174.09,78.54 174.09,73.63 L174.09,50.15 L182.25,50.15 L182.25,72.84 C182.25,76.0933333 182.87,78.3833333 184.11,79.71 C185.479955,81.0985642 187.382941,81.8276776 189.33,81.71 C190.803072,81.7537081 192.26866,81.4844489 193.63,80.92 C194.708649,80.438482 195.662955,79.7167667 196.42,78.81 C197.160169,77.8719115 197.685825,76.7830511 197.96,75.62 C198.276447,74.3105152 198.430936,72.9671338 198.42,71.62 L198.42,50.15 L206.58,50.15 L206.58,87.15 L206.57,87.16 Z M147.44,50.16 L155.1,50.16 L155.1,57.32 L155.24,57.32 C155.508947,56.2605904 155.98474,55.2648233 156.64,54.39 C157.353909,53.4100411 158.194563,52.5290352 159.14,51.77 C160.126973,50.9818869 161.225655,50.3449209 162.4,49.88 C163.558741,49.4064996 164.798249,49.161994 166.05,49.16 C167.05,49.16 167.66,49.16 168.05,49.23 L169.16,49.38 L169.16,57.25 C168.59,57.15 168,57.07 167.41,57 C166.825946,56.929416 166.238297,56.892688 165.65,56.89 C164.306769,56.885724 162.977775,57.1651535 161.75,57.71 C160.518259,58.2709548 159.43068,59.105449 158.57,60.15 C157.598754,61.3299751 156.868308,62.6889457 156.42,64.15 C155.863292,65.9084686 155.596472,67.745817 155.63,69.59 L155.63,87.2 L147.47,87.2 L147.47,50.2 L147.44,50.16 Z M107.86,36.06 L149.23,36.06 L149.23,43.79 L133,43.79 L133,87.17 L124,87.17 L124,43.78 L107.86,43.78 L107.86,36.05 L107.86,36.06 Z" id="Shape" fill="#231F20"></path>
                <polygon fill="#21B685" points="98.34 36.05 60.97 36.05 49.42 0.51 37.88 36.04 0.51 36.04 30.74 58.01 19.2 93.55 49.43 71.59 79.65 93.55 68.11 58.02 98.34 36.05 98.34 36.05 98.34 36.05 98.34 36.05"></polygon>
            </g>
            <polygon fill="#00562F" points="612.72 170.07 610.11 162.02 591.43 175.59 612.72 170.07"></polygon>
            <g id="Trustpilot_ratings_5star-RGB" transform="translate(438.000000, 0.000000)">
                <rect id="Rectangle-path" fill="#00B67A" x="0.51" y="0.86" width="96" height="96"></rect>
                <rect id="Rectangle-path-2" fill="#00B67A" x="104.51" y="0.86" width="96" height="96"></rect>
                <rect id="Rectangle-path-3" fill="#00B67A" x="208.51" y="0.86" width="96" height="96"></rect>
                <rect id="Rectangle-path-4" fill="#00B67A" x="312.51" y="0.86" width="96" height="96"></rect>
                <rect id="Rectangle-path-5" fill="#00B67A" x="416.51" y="0.86" width="96" height="96"></rect>
                <path d="M48.51,65.56 L63.11,61.86 L69.21,80.66 L48.51,65.56 Z M82.11,41.26 L56.41,41.26 L48.51,17.06 L40.61,41.26 L14.91,41.26 L35.71,56.26 L27.81,80.46 L48.61,65.46 L61.41,56.26 L82.11,41.26 L82.11,41.26 Z" id="Shape" fill="#FFFFFF"></path>
                <path d="M152.51,65.56 L167.11,61.86 L173.21,80.66 L152.51,65.56 Z M186.11,41.26 L160.41,41.26 L152.51,17.06 L144.61,41.26 L118.91,41.26 L139.71,56.26 L131.81,80.46 L152.61,65.46 L165.41,56.26 L186.11,41.26 L186.11,41.26 Z" id="Shape-2" fill="#FFFFFF"></path>
                <path d="M256.51,65.56 L271.11,61.86 L277.21,80.66 L256.51,65.56 Z M290.11,41.26 L264.41,41.26 L256.51,17.06 L248.61,41.26 L222.91,41.26 L243.71,56.26 L235.81,80.46 L256.61,65.46 L269.41,56.26 L290.11,41.26 L290.11,41.26 Z" id="Shape-3" fill="#FFFFFF"></path>
                <path d="M360.51,65.56 L375.11,61.86 L381.21,80.66 L360.51,65.56 Z M394.11,41.26 L368.41,41.26 L360.51,17.06 L352.61,41.26 L326.91,41.26 L347.71,56.26 L339.81,80.46 L360.61,65.46 L373.41,56.26 L394.11,41.26 L394.11,41.26 Z" id="Shape-4" fill="#FFFFFF"></path>
                <path d="M464.51,65.56 L479.11,61.86 L485.21,80.66 L464.51,65.56 Z M498.11,41.26 L472.41,41.26 L464.51,17.06 L456.61,41.26 L430.91,41.26 L451.71,56.26 L443.81,80.46 L464.61,65.46 L477.41,56.26 L498.11,41.26 L498.11,41.26 Z" id="Shape-5" fill="#FFFFFF"></path>
            </g>
            <g id="Group" transform="translate(163.640000, 120.580000)" fill="#000000">
                <g id="r">
                    <use xlink:href="#path-1"></use>
                    <use xlink:href="#path-1"></use>
                </g>
                <g id="eviewson">
                    <use xlink:href="#path-2"></use>
                    <use xlink:href="#path-2"></use>
                </g>
            </g>
            <g id="Excellent" fill="#000000">
                <use xlink:href="#path-3"></use>
                <use xlink:href="#path-3"></use>
            </g>
        </g>
    </g>
</svg>